<svg xmlns="http://www.w3.org/2000/svg" id="Layer_1" enable-background="new 0 0 128 128" viewBox="0 0 128 128"><g><path d="m42 94c6.4 0 12.4-2 17.2-5.5 1.5-1 1.7-3.1.5-4.4-4.8-5.3-7.7-12.4-7.7-20.1s2.9-14.8 7.7-20.1c1.2-1.3 1-3.4-.5-4.4-5.3-3.8-11.9-5.8-19-5.4-15 .9-27.2 13-28.2 28-1 17.4 12.8 31.9 30 31.9z" fill="#ffffff"/><path d="m115.9 62.1c-.9-15-13.2-27.1-28.2-28-7.1-.4-13.7 1.7-19 5.4-1.5 1-1.7 3.1-.5 4.4 4.9 5.3 7.8 12.4 7.8 20.1s-2.9 14.8-7.7 20.1c-1.2 1.3-1 3.4.5 4.4 4.8 3.5 10.8 5.5 17.2 5.5 17.2 0 31-14.5 29.9-31.9z" fill="#ffffff"/></g></svg>