<?xml version="1.0" encoding="iso-8859-1"?>
<!-- Generator: Adobe Illustrator 29.6.1, SVG Export Plug-In . SVG Version: 9.03 Build 0)  -->
<svg version="1.1" id="Warstwa_1" xmlns="http://www.w3.org/2000/svg" xmlns:xlink="http://www.w3.org/1999/xlink" x="0px" y="0px"
	 viewBox="0 0 156.526 21.772" style="enable-background:new 0 0 156.526 21.772;" xml:space="preserve">
<g>
	<path style="fill:#b6976d;" d="M14.13,3.879c-0.204,0-0.362,0.136-0.566,0.136c-0.181,0-0.385-0.226-0.815-0.226
		c-2.128,0-4.099,0.521-5.706,1.064C6.907,4.898,6.839,4.944,6.771,5.125C6.363,6.234,5.956,7.208,5.526,8.318
		c0,0.068,0.022,0.09,0.09,0.09c1.019-0.362,2.196-0.883,3.329-0.883c0.543,0,1.109,0.136,1.698,0.453
		c0.249,0.136,0.294,0.498,0.294,0.725c0,0.272-0.906,0.453-1.087,0.453c-0.271,0-0.543-0.068-0.747-0.068
		c-1.404,0-2.717,0.725-3.872,1.019c-0.181,0.045-0.589,0.159-0.68,0.362c-0.974,2.174-1.721,3.827-1.721,5.027
		c0,0.362,0.317,0.77,0.566,0.77c0.408,0,1.2-0.158,1.834-0.43c0.679-0.294,1.177-0.476,1.54-0.634c1.2-0.521,2.31-1.63,3.668-1.63
		c0.09,0,0.181,0,0.227,0.068c0.09,0.136,0.702,0.43,0.702,0.702c0,0.159-0.045,0.272-0.136,0.294
		c-0.159,0.045-0.317,0.136-0.498,0.294c-0.249,0.227-0.476,0.385-0.611,0.453c-2.061,1.109-4.257,2.287-7.337,2.287
		c-0.158,0-1.313-0.294-1.744-0.929c-0.158-0.227-0.181-0.86-0.181-1.155c0-1.857,0.838-3.464,1.427-5.118
		c-0.068-0.068-0.294-0.317-0.294-0.702c0-0.091,0-0.204,0.045-0.272c0.068-0.113,0.158-0.136,0.657-0.271
		c0.181-0.045,0.226-0.068,0.339-0.317c0.634-1.404,0.951-2.151,1.132-2.853c0-0.09-0.022-0.113-0.09-0.113
		c-0.136,0-0.521,0.181-0.838,0.181c-0.136,0-0.294-0.022-0.431-0.09C2.491,5.872,2.22,5.17,2.22,4.898
		c0-0.113,0.045-0.136,0.136-0.159c1.449-0.362,2.763-0.906,4.099-1.404c0.906-0.34,3.872-1.155,6.136-1.155
		c0.227,0,0.634,0.068,0.77,0.136c0.543,0.272,1.11,0.725,1.11,1.132C14.47,3.789,14.379,3.879,14.13,3.879z"/>
	<path style="fill:#b6976d;" d="M16.024,16.447c-0.476,0.43-1.313,1.087-2.333,1.087c-0.679,0-1.449-0.951-1.698-1.789
		c-0.09-0.317-0.113-0.634-0.113-0.951c0-0.566,0.091-1.064,0.362-1.834c0.159-0.431,0.249-0.815,0.385-1.132
		c0.702-1.653,1.358-3.284,2.196-5.027c0.227-0.476,0.702-0.612,1.132-0.612c0.227,0,0.521,0.045,0.679,0.181
		c0.113,0.091,0.181,0.159,0.181,0.362c0,1.2-0.928,1.767-1.449,2.876c-0.385,0.838-1.019,2.377-1.336,3.215
		c-0.385,1.019-0.543,1.879-0.543,2.219c0,0.204,0.022,0.725,0.408,0.725c0.498,0,0.747-0.136,1.653-0.77
		c0.543-0.385,0.702-0.498,1.064-0.498c0.181,0,0.43,0.045,0.566,0.159s0.136,0.226,0.136,0.317c0,0.249-0.136,0.385-0.362,0.611
		L16.024,16.447z M19.172,2.317c0,0.136-0.022,0.294-0.113,0.408c-0.408,0.498-0.951,1.109-1.449,1.109
		c-0.453,0-0.792-0.249-0.906-0.453c-0.113-0.227-0.158-0.521-0.158-0.77c0-0.317,0.09-0.702,0.294-0.951
		c0.227-0.271,0.634-0.385,1.11-0.385c0.362,0,0.792,0.113,0.951,0.294C19.126,1.819,19.172,2.091,19.172,2.317z"/>
	<path style="fill:#b6976d;" d="M19.981,7.027c0.181-0.271,0.158-0.317,0.362-0.498c0.181-0.159,0.453-0.227,0.792-0.227
		c0.521,0,0.815,0.136,0.906,0.34c0.045,0.113,0.113,0.294,0.113,0.408c0,0.249-0.113,0.656-0.499,1.064
		c-0.249,0.272-0.883,0.997-1.449,2.038c-0.317,0.589-0.86,1.676-1.607,3.533c-0.159,0.407-0.453,1.517-0.453,1.585
		c0,0.09,0,0.227,0.068,0.227c0.136,0,0.227-0.068,0.385-0.294c3.057-4.348,4.732-5.253,5.23-6.318
		c0.408-0.86,0.499-0.928,0.792-0.928c0.34,0,0.453,0.204,0.815,0.226c0.249,0.023,0.453,0.34,0.453,0.611
		c0,0.091-0.113,0.408-0.226,0.589c-0.815,1.336-1.246,2.197-1.585,3.352c-0.136,0.453-0.271,1.585-0.271,2.038
		c0,0.407,0.136,0.747,0.181,0.974c0.068,0.407,0.634,0.702,0.792,0.815c0.181,0.136,0.34,0.294,0.34,0.521
		c0,0.158-0.159,0.543-0.589,0.543c-0.181,0-0.906-0.068-1.178-0.317c-0.317-0.294-0.588-0.385-0.883-0.793
		c-0.272-0.362-0.385-0.838-0.385-1.404c0-1.336,0.204-1.721,0.204-1.789c0-0.045-0.023-0.091-0.068-0.091
		c-0.045,0-0.068,0-0.136,0.091c-0.928,1.223-1.54,1.992-2.083,2.762c-0.476,0.679-0.657,0.657-0.974,0.997
		c-0.181,0.204-0.634,0.249-0.838,0.249c-0.272,0-1.336-0.679-1.63-1.042c-0.091-0.113-0.159-0.408-0.159-0.657
		c0-0.702,0.204-0.86,0.272-1.359c0.09-0.657,0.725-2.196,1.109-3.08C18.463,9.631,18.984,8.544,19.981,7.027z"/>
	<path style="fill:#b6976d;" d="M38.295,4.672c-0.068,0.249-0.204,1.178-0.204,2.378c0,0.181,0.045,0.77,0.045,3.034
		c0,0.181,0.068,0.271,0.136,0.271c0.045,0,0.068-0.022,0.271-0.249c2.083-2.287,4.642-4.144,6.408-6.408
		c0.159-0.204,0.204-0.227,0.317-0.227c0.588,0,0.747,0.181,0.996,0.181c0.068,0,0.543,0.408,0.543,0.929
		c0,0.068-0.022,0.09-0.113,0.226c-2.423,3.646-3.691,7.541-4.28,13.904c-0.045,0.498-0.068,0.521-0.158,0.521
		c-0.159,0-0.317-0.181-0.521-0.181c-0.136,0-0.113,0.091-0.249,0.091c-0.294,0-0.725-0.272-0.906-0.43
		c-0.159-0.136-0.181-0.159-0.181-0.272c0-0.158,0.77-4.8,0.906-5.479c0.136-0.725,0.725-2.627,1.155-3.917
		c0-0.091-0.022-0.091-0.09-0.091c-0.045,0-0.068,0.023-0.113,0.068c-1.11,1.11-2.876,3.057-3.193,3.419
		c-0.204,0.227-0.227,0.227-0.294,0.227s-0.317-0.113-0.815-0.204c-0.385-0.068-0.793-0.136-1.042-0.521
		c-0.181-0.272-0.43-1.087-0.476-2.061V7.684c0-0.068-0.022-0.113-0.068-0.113c-0.068,0-0.09,0.045-0.271,0.385
		c-0.702,1.313-1.155,2.491-1.721,4.053c-0.951,2.626-1.404,4.393-1.404,5.344c0,0.159-0.294,0.385-0.43,0.385
		c-0.34,0-0.34,0.226-0.521,0.226s-0.702-0.362-0.838-0.362c-0.158,0-0.453-0.453-0.453-0.838c0-0.837,0.634-1.562,0.77-2.083
		c1.155-4.461,3.781-8.786,5.321-12.635c0.136-0.34,0.181-0.43,0.249-0.43c0.227,0,0.227,0.068,0.611,0.113
		c0.362,0.045,0.792,0.113,1.042,0.362c0.091,0.09,0.136,0.181,0.136,0.249C38.861,2.725,38.476,3.97,38.295,4.672z"/>
	<path style="fill:#b6976d;" d="M56.159,7.797c0.113,0,0.453,0.022,0.634,0.294c0.045,0.068,0.045,0.09,0.045,0.136
		c0,0.091-0.045,0.181-0.091,0.249c-0.996,1.359-2.196,3.057-2.626,4.801c-0.159,0.634-0.317,1.313-0.317,2.015
		c0,0.589,0.136,1.178,0.475,1.698c0.023,0.045,0.045,0.091,0.045,0.136c0,0.045-0.09,0.272-0.476,0.317
		c-0.136,0.022-0.294,0.09-0.43,0.09c-0.339,0-0.838-0.158-0.974-0.453c-0.294-0.657-0.385-1.313-0.385-1.947
		c0-0.68,0.09-1.064,0.09-1.132c0-0.091,0-0.113-0.09-0.113c-0.091,0-0.294,0.159-0.543,0.408l-1.223,1.132
		c-1.177,1.11-1.902,1.427-2.694,1.698c-0.136,0.045-0.272,0.091-0.362,0.091c-0.249,0-0.521-0.159-1.585-1.019
		c-0.113-0.09-0.498-0.476-0.498-1.336c0-0.747,0.249-1.698,1.359-3.351c1.336-1.993,2.582-2.898,3.261-3.397
		c1.109-0.815,2.287-1.404,3.623-1.789c0.158-0.045,0.339-0.068,0.498-0.068c0.521,0,0.974,0.25,1.381,0.657
		c0.113,0.113,0.294,0.317,0.34,0.453C55.706,7.593,55.91,7.797,56.159,7.797z M53.464,7.888c-2.128,1.132-3.804,2.377-5.095,3.94
		c-0.951,1.155-1.699,2.491-1.699,3.147c0,0.271,0.091,0.611,0.499,0.611c0.181,0,0.702-0.249,1.109-0.634
		c2.106-1.97,4.483-3.487,5.638-5.638c0.159-0.294,0.408-0.611,0.657-0.86c0.068-0.068,0.113-0.204,0.113-0.34
		c0-0.158-0.136-0.453-0.521-0.453C54.098,7.661,53.759,7.729,53.464,7.888z"/>
	<path style="fill:#b6976d;" d="M59.079,7.027c0.182-0.271,0.159-0.317,0.362-0.498c0.182-0.159,0.453-0.227,0.793-0.227
		c0.521,0,0.815,0.136,0.906,0.34c0.045,0.113,0.113,0.294,0.113,0.408c0,0.249-0.113,0.656-0.498,1.064
		c-0.249,0.272-0.883,0.997-1.449,2.038c-0.317,0.589-0.86,1.676-1.607,3.533c-0.159,0.407-0.453,1.517-0.453,1.585
		c0,0.09,0,0.227,0.068,0.227c0.136,0,0.227-0.068,0.385-0.294c3.057-4.348,4.732-5.253,5.23-6.318
		c0.408-0.86,0.498-0.928,0.792-0.928c0.34,0,0.453,0.204,0.815,0.226c0.249,0.023,0.453,0.34,0.453,0.611
		c0,0.091-0.113,0.408-0.226,0.589c-0.815,1.336-1.246,2.197-1.585,3.352c-0.136,0.453-0.271,1.585-0.271,2.038
		c0,0.407,0.136,0.747,0.181,0.974c0.068,0.407,0.634,0.702,0.792,0.815c0.181,0.136,0.34,0.294,0.34,0.521
		c0,0.158-0.159,0.543-0.589,0.543c-0.181,0-0.906-0.068-1.178-0.317c-0.317-0.294-0.588-0.385-0.883-0.793
		c-0.272-0.362-0.385-0.838-0.385-1.404c0-1.336,0.204-1.721,0.204-1.789c0-0.045-0.023-0.091-0.068-0.091
		c-0.045,0-0.068,0-0.136,0.091c-0.928,1.223-1.54,1.992-2.083,2.762c-0.476,0.679-0.657,0.657-0.974,0.997
		c-0.181,0.204-0.634,0.249-0.838,0.249c-0.272,0-1.336-0.679-1.63-1.042c-0.091-0.113-0.159-0.408-0.159-0.657
		c0-0.702,0.204-0.86,0.272-1.359c0.09-0.657,0.725-2.196,1.109-3.08C57.562,9.631,58.083,8.544,59.079,7.027z"/>
	<path style="fill:#b6976d;" d="M68.172,7.027c0.181-0.271,0.158-0.317,0.362-0.498c0.181-0.159,0.453-0.227,0.792-0.227
		c0.521,0,0.815,0.136,0.906,0.34c0.045,0.113,0.113,0.294,0.113,0.408c0,0.249-0.113,0.656-0.499,1.064
		c-0.249,0.272-0.883,0.997-1.449,2.038c-0.317,0.589-0.86,1.676-1.607,3.533c-0.159,0.407-0.453,1.517-0.453,1.585
		c0,0.09,0,0.227,0.068,0.227c0.136,0,0.227-0.068,0.385-0.294c3.057-4.348,4.732-5.253,5.23-6.318
		c0.408-0.86,0.499-0.928,0.792-0.928c0.34,0,0.453,0.204,0.815,0.226c0.249,0.023,0.453,0.34,0.453,0.611
		c0,0.091-0.113,0.408-0.226,0.589c-0.815,1.336-1.246,2.197-1.585,3.352c-0.136,0.453-0.271,1.585-0.271,2.038
		c0,0.407,0.136,0.747,0.181,0.974c0.068,0.407,0.634,0.702,0.792,0.815c0.181,0.136,0.34,0.294,0.34,0.521
		c0,0.158-0.159,0.543-0.589,0.543c-0.181,0-0.906-0.068-1.178-0.317c-0.317-0.294-0.588-0.385-0.883-0.793
		c-0.272-0.362-0.385-0.838-0.385-1.404c0-1.336,0.204-1.721,0.204-1.789c0-0.045-0.023-0.091-0.068-0.091
		c-0.045,0-0.068,0-0.136,0.091c-0.928,1.223-1.54,1.992-2.083,2.762c-0.476,0.679-0.657,0.657-0.974,0.997
		c-0.181,0.204-0.634,0.249-0.838,0.249c-0.272,0-1.336-0.679-1.63-1.042c-0.091-0.113-0.159-0.408-0.159-0.657
		c0-0.702,0.204-0.86,0.272-1.359c0.09-0.657,0.725-2.196,1.109-3.08C66.655,9.631,67.176,8.544,68.172,7.027z"/>
	<path style="fill:#b6976d;" d="M76.316,14.862c0.204-0.385,0.339-0.476,0.747-0.476c0.249,0,0.543,0.159,0.747,0.453
		c0.272,0.407,0.476,0.453,0.476,0.815c0,0.068-0.022,0.136-0.068,0.204l-2.944,4.483c-0.158,0.249-0.498,0.453-0.543,0.453
		c-0.113,0-0.294-0.022-0.43-0.068c-0.068-0.022-0.339-0.09-0.43-0.09c-0.181,0-0.385-0.362-0.385-0.521
		c0-0.068,0-0.181,0.158-0.453l1.54-2.649C75.365,16.696,76.022,15.451,76.316,14.862z"/>
	<path style="fill:#b6976d;" d="M87.907,17.511c-0.271,0-0.498-0.023-0.86-0.159c-0.498-0.181-1.291-0.543-1.449-0.634
		c-0.453-0.249-0.883-0.815-1.132-1.562c-0.158-0.453-0.271-1.313-0.271-1.744c0-0.204,0.022-0.43,0.113-0.747
		c0.634-2.31,2.174-4.303,3.895-6.137c0.385-0.408,1.313-1.019,2.423-1.019c0.612,0,0.929,0.091,1.381,0.249
		c0.249,0.091,0.725,0.498,0.725,1.404c0,0.588-0.249,1.087-0.521,1.63c-0.227,0.453-0.408,0.702-0.725,1.064
		c-1.562,1.766-3.329,3.736-5.253,4.801c-0.113,0.068-0.136,0.113-0.136,0.181c0,0.362,0.34,0.837,0.543,0.951
		c0.25,0.136,0.476,0.181,0.702,0.181c0.385,0,0.725-0.09,1.744-0.634c1.562-0.838,2.514-2.061,3.872-2.921
		c0.249-0.158,0.362-0.158,0.453-0.158c0.136,0,0.453,0.227,0.453,0.453c0,0.204-0.022,0.227-0.022,0.294
		c0,0.091,0,0.227-0.113,0.317c-1.087,0.928-1.562,2.061-5.004,3.962C88.314,17.511,88.201,17.511,87.907,17.511z M90.828,7.163
		c0-0.182,0-0.272-0.136-0.272c-0.136,0-0.271,0.068-0.475,0.204c-0.25,0.159-0.227,0.091-0.453,0.294
		c-1.472,1.313-3.057,3.17-3.555,5.186c0,0.091,0.023,0.113,0.045,0.113c0.045,0,0.09-0.022,0.159-0.068
		c1.336-1.019,2.445-2.265,3.464-3.487c0.34-0.408,0.249-0.476,0.543-0.928C90.647,7.865,90.828,7.57,90.828,7.163z"/>
	<path style="fill:#b6976d;" d="M97.005,16.447c-0.476,0.43-1.313,1.087-2.333,1.087c-0.679,0-1.449-0.951-1.698-1.789
		c-0.09-0.317-0.113-0.634-0.113-0.951c0-0.566,0.091-1.064,0.362-1.834c0.159-0.431,0.249-0.815,0.385-1.132
		c0.702-1.653,1.358-3.284,2.196-5.027c0.227-0.476,0.702-0.612,1.132-0.612c0.227,0,0.521,0.045,0.679,0.181
		c0.113,0.091,0.181,0.159,0.181,0.362c0,1.2-0.928,1.767-1.449,2.876c-0.385,0.838-1.019,2.377-1.336,3.215
		c-0.385,1.019-0.543,1.879-0.543,2.219c0,0.204,0.022,0.725,0.408,0.725c0.498,0,0.747-0.136,1.653-0.77
		c0.543-0.385,0.702-0.498,1.064-0.498c0.181,0,0.43,0.045,0.566,0.159s0.136,0.226,0.136,0.317c0,0.249-0.136,0.385-0.362,0.611
		L97.005,16.447z M100.152,2.317c0,0.136-0.022,0.294-0.113,0.408c-0.408,0.498-0.951,1.109-1.449,1.109
		c-0.453,0-0.792-0.249-0.906-0.453c-0.113-0.227-0.158-0.521-0.158-0.77c0-0.317,0.09-0.702,0.294-0.951
		c0.227-0.271,0.634-0.385,1.11-0.385c0.362,0,0.792,0.113,0.951,0.294C100.107,1.819,100.152,2.091,100.152,2.317z"/>
	<path style="fill:#b6976d;" d="M100.961,7.027c0.181-0.271,0.158-0.317,0.362-0.498c0.181-0.159,0.453-0.227,0.792-0.227
		c0.521,0,0.815,0.136,0.906,0.34c0.045,0.113,0.113,0.294,0.113,0.408c0,0.249-0.113,0.656-0.499,1.064
		c-0.249,0.272-0.883,0.997-1.449,2.038c-0.317,0.589-0.86,1.676-1.607,3.533c-0.159,0.407-0.453,1.517-0.453,1.585
		c0,0.09,0,0.227,0.068,0.227c0.136,0,0.227-0.068,0.385-0.294c3.057-4.348,4.732-5.253,5.23-6.318
		c0.408-0.86,0.499-0.928,0.792-0.928c0.34,0,0.453,0.204,0.815,0.226c0.249,0.023,0.453,0.34,0.453,0.611
		c0,0.091-0.113,0.408-0.226,0.589c-0.815,1.336-1.246,2.197-1.585,3.352c-0.136,0.453-0.271,1.585-0.271,2.038
		c0,0.407,0.136,0.747,0.181,0.974c0.068,0.407,0.634,0.702,0.792,0.815c0.181,0.136,0.34,0.294,0.34,0.521
		c0,0.158-0.159,0.543-0.589,0.543c-0.181,0-0.906-0.068-1.178-0.317c-0.317-0.294-0.588-0.385-0.883-0.793
		c-0.272-0.362-0.385-0.838-0.385-1.404c0-1.336,0.204-1.721,0.204-1.789c0-0.045-0.023-0.091-0.068-0.091
		c-0.045,0-0.068,0-0.136,0.091c-0.928,1.223-1.54,1.992-2.083,2.762c-0.476,0.679-0.657,0.657-0.974,0.997
		c-0.181,0.204-0.634,0.249-0.838,0.249c-0.272,0-1.336-0.679-1.63-1.042c-0.091-0.113-0.159-0.408-0.159-0.657
		c0-0.702,0.204-0.86,0.272-1.359c0.09-0.657,0.725-2.196,1.109-3.08C99.444,9.631,99.965,8.544,100.961,7.027z"/>
	<path style="fill:#b6976d;" d="M126.409,3.97c0.023,0.317,0.045,0.657,0.045,0.906c0,1.155-0.136,1.97-0.453,3.396
		c-0.702,3.147-1.902,6.227-3.827,8.944c-0.271,0.385-0.589,0.747-1.155,0.747c-0.113,0-0.249-0.136-0.657-0.158
		c-0.34-0.023-0.498-0.113-0.702-0.317c-0.158-0.158-0.747-0.204-0.905-0.543c-0.431-0.906-0.476-1.857-0.612-3.08
		c-0.045-0.385-0.113-0.407-0.158-0.407c-0.068,0-0.113,0.045-0.204,0.181c-0.226,0.362-0.43,0.611-0.792,0.951
		c-1.132,1.042-2.038,2.831-3.057,2.831c-0.136,0-0.431-0.181-0.815-0.521c-0.249-0.227-0.725-0.136-0.792-0.43
		c-0.045-0.181-0.045-0.272-0.045-0.77c0-0.748,0.136-1.359,0.227-1.947c0.091-0.543,0.022-0.521,0.181-1.223
		c0.702-3.147,1.766-6.385,2.604-9.465c0.068-0.249,0.113-0.385,0.702-0.385c0.249,0,0.476,0.091,0.702,0.136
		c0.113,0.022,0.566,0.521,0.566,0.588s-0.045,0.159-0.068,0.227c-1.381,3.306-2.287,6.929-3.035,10.529
		c-0.09,0.43-0.113,0.657-0.113,0.725c0,0.091,0.022,0.113,0.068,0.113c0.045,0,0.181-0.022,0.588-0.453
		c1.472-1.517,2.898-3.51,3.623-5.118c0.227-0.498,0.249-0.566,0.362-1.064c0.091-0.407,0.227-0.815,0.362-1.132
		c0.068-0.159,0.091-0.181,0.181-0.181c0.181,0,0.43,0.09,0.589,0.113c0.181,0.022,0.317,0.09,0.476,0.271
		c0.272,0.317,0.385,0.589,0.385,0.838c0,0.271-0.022,0.385-0.068,0.521c-0.407,1.313-0.657,2.627-0.657,4.076
		c0,0.883,0.091,1.834,0.294,2.853c0.023,0.113,0.091,0.204,0.159,0.204c0.09,0,0.204-0.136,0.339-0.317
		c1.857-2.468,2.944-5.751,3.668-8.876c0.113-0.476,0.136-0.747,0.136-0.996c0-0.566,0.045-0.634,0.045-1.291
		c0-0.702-0.453-0.837-0.453-1.517c0-0.521,0.045-0.792,0.294-0.792c0.181,0,0.362,0.045,0.679,0.045
		c0.43,0,0.747,0.045,0.996,0.566C126.318,3.155,126.386,3.562,126.409,3.97z"/>
	<path style="fill:#b6976d;" d="M134.397,8.046c0.906,0,1.427-0.068,1.947-0.068c0.725,0,1.404,0.227,1.404,0.589
		c0,0.294-0.566,0.362-0.634,0.476c-0.045,0.09-0.09,0.113-0.249,0.136c-0.453,0.068-1.109,0.294-1.698,0.385
		c-0.453,0.068-0.725,0.068-0.883,0.068c-0.181,0-0.227,0.023-0.271,0.181c-0.589,2.423-1.404,4.529-2.854,6.069
		c-0.634,0.679-1.245,1.336-2.038,1.336c-0.204,0-0.408-0.045-0.543-0.113c-0.86-0.408-1.495-0.906-1.698-1.427
		c-0.249-0.634-0.34-1.313-0.34-1.879c0-1.856,0.928-3.487,1.97-5.049c0.317-0.476,0.317-0.362,0.543-0.68
		c0.725-1.019,1.675-2.083,2.672-2.083c0.362,0,0.815,0.091,1.2,0.43c0.181,0.159,0.249,0.204,0.317,0.385
		C133.446,7.367,133.74,8.046,134.397,8.046z M131.906,7.956c-0.068-0.227-0.136-0.385-0.227-0.385c-0.09,0-0.227,0.091-0.339,0.227
		c-0.091,0.113-0.317,0.227-0.431,0.385c-0.702,0.883-2.83,3.691-2.83,6.34c0,0.068,0,0.159,0.068,0.317
		c0.068,0.181,0.339,0.611,0.543,0.747c0.068,0.045,0.136,0.045,0.204,0.045c0.227,0,0.34-0.136,0.43-0.181
		c0.159-0.068,0.204-0.136,0.385-0.408c1.313-1.97,2.536-3.736,2.536-6.023c0-0.09,0-0.362-0.022-0.476
		c-0.022-0.158-0.068-0.181-0.136-0.249C131.974,8.182,131.929,8.046,131.906,7.956z"/>
	<path style="fill:#b6976d;" d="M138.652,8.567c0,0.249-0.045,0.498-0.136,0.77c-0.068,0.271-0.09,0.317-0.09,0.362
		c0,0.068,0,0.09,0.068,0.09c0.022,0,0.113-0.022,0.294-0.181c1.245-0.951,2.332-1.585,3.147-1.857
		c0.068-0.022,0.204-0.045,0.271-0.045c0.634,0,1.269,0.182,1.653,0.634c0.09,0.09,0.158,0.249,0.158,0.385
		c0,0.702-0.611,0.997-0.792,0.997c-0.339,0-0.702-0.227-1.019-0.227c-0.068,0-0.158,0-0.362,0.091
		c-2.468,1.155-4.914,3.17-5.706,6.499c-0.159,0.679-0.408,0.974-0.566,1.087c-0.113,0.136-0.317,0.204-0.408,0.204
		c-0.362-0.023-0.521-0.294-0.679-0.476c-0.227-0.227-0.408-0.589-0.43-0.861c0-0.77,0.951-1.517,1.223-2.377
		c0.566-1.721,1.2-3.419,1.562-5.231c0.022-0.204,0.045-0.317,0.045-0.362c0-0.136-0.181-0.317-0.204-0.521
		c0-0.181,0.362-0.498,0.883-0.498c0.317,0,0.679,0.136,0.747,0.249C138.516,7.616,138.652,8.023,138.652,8.567z"/>
	<path style="fill:#b6976d;" d="M146.862,7.638c-0.227,0.476-0.521,1.336-0.521,1.404c0,0.045,0.045,0.068,0.091,0.068
		c0.068,0,0.34-0.045,0.566-0.091c0.997-0.204,2.287-0.679,3.035-1.132c0.113-0.068,0.204-0.113,0.249-0.113
		c0.385,0,1.109,0.317,1.109,0.588c0,0.294-0.249,0.657-0.747,0.861c-0.611,0.249-0.611,0.317-1.019,0.476
		c-1.11,0.43-3.034,0.86-3.51,1.019c-0.204,0.068-0.34,0.181-0.43,0.34c-0.181,0.317-0.294,0.747-0.385,1.087
		c-0.068,0.249-0.204,0.476-0.249,0.725c-0.136,0.747-0.906,2.672-1.042,3.804c-0.022,0.204-0.249,0.792-0.566,0.951
		c-0.09,0.045-0.249,0.068-0.339,0.068c-0.272,0-0.634-0.113-0.815-0.249s-0.249-0.34-0.249-0.543c0-0.181,0.023-0.476,0.091-0.679
		c0.566-1.676,0.974-3.646,1.698-5.39c0.022-0.068,0.045-0.113,0.045-0.158c0-0.045-0.023-0.091-0.113-0.136
		c-0.815-0.407-0.951-0.996-1.472-1.426c-0.113-0.091-0.113-0.204-0.113-0.272c0-0.158,0.09-0.204,0.271-0.294
		c0.136-0.068,0.249-0.113,0.453-0.113c0.498,0,1.064,0.362,1.472,0.362c0.204,0,0.34-0.113,0.385-0.317
		c0.068-0.249,0.181-0.588,0.362-1.064c0.543-1.381,1.155-3.147,1.925-4.801c0.136-0.294,0.159-0.294,0.249-0.294
		c0.362,0,0.408-0.113,0.634-0.113c0.204,0,0.588,0.068,0.86,0.181c0.113,0.045,0.204,0.091,0.204,0.159
		c0,0.045,0,0.113-0.022,0.249C148.674,4.559,147.587,6.099,146.862,7.638z"/>
	<path style="fill:#b6976d;" d="M151.677,15.7c0,0.204,0,0.43-0.159,0.86c-0.159,0.408-0.362,0.883-0.725,0.883
		c-0.159,0-0.34,0.022-0.883,0.022c-0.362,0-0.702-0.996-0.702-1.404c0-0.249,0.045-0.362,0.204-0.634
		c0.091-0.158,0.068-0.543,0.476-0.543c0.634,0,0.86,0.43,1.472,0.476C151.609,15.383,151.677,15.541,151.677,15.7z M155.187,3.608
		c0,0.837-0.499,1.472-0.702,2.128c-0.792,2.491-1.268,4.8-2.287,7.11c-0.09,0.204-0.136,0.271-0.294,0.271
		c-0.317,0-0.453-0.158-0.476-0.271c-0.113-0.589-0.634-0.657-0.634-0.974c0-0.159,0-0.227,0.068-0.408
		c0.159-0.408,0.159-0.589,0.249-0.974c0.521-2.197,1.178-3.917,1.517-6.159c0.113-0.725,0.294-1.812,0.974-1.812
		c0.182,0,0.294,0.158,0.499,0.204c0.294,0.068,0.317,0.271,0.498,0.317C154.915,3.132,155.187,3.404,155.187,3.608z"/>
</g>
</svg>
