<?xml version="1.0" encoding="iso-8859-1"?>
<!-- Generator: Adobe Illustrator 29.6.1, SVG Export Plug-In . SVG Version: 9.03 Build 0)  -->
<svg version="1.1" id="Tryb_izolacji" xmlns="http://www.w3.org/2000/svg" xmlns:xlink="http://www.w3.org/1999/xlink" x="0px"
	 y="0px" viewBox="0 0 134.474 134.474" style="enable-background:new 0 0 134.474 134.474;" xml:space="preserve">
<g id="XMLID_112_">
	<path id="XMLID_117_" style="fill:#b59464;" d="M99.029,0H35.445C15.95,0,0,16.29,0,36.2v62.074c0,19.91,15.95,36.2,35.445,36.2
		h63.584c19.495,0,35.445-16.29,35.445-36.2V36.2C134.474,16.29,118.524,0,99.029,0z M122.438,97.376
		c0,13.784-11.043,25.062-24.539,25.062H36.576c-13.496,0-24.539-11.278-24.539-25.062V37.097c0-13.784,11.043-25.062,24.539-25.062
		l61.323,0.001c13.496,0,24.539,11.278,24.539,25.062V97.376z"/>
	<path id="XMLID_114_" style="fill:#b59464;" d="M67.229,32.717c-18.673,0-33.809,15.458-33.809,34.529
		c0,19.07,15.137,34.529,33.809,34.529s33.809-15.458,33.809-34.529S85.901,32.717,67.229,32.717z M67.229,89.523
		c-12.047,0-21.812-9.974-21.812-22.277c0.001-12.304,9.766-22.277,21.813-22.277c12.047,0,21.812,9.974,21.812,22.277
		C89.042,79.549,79.276,89.522,67.229,89.523z"/>
	<ellipse id="XMLID_71_" style="fill:#b59464;" cx="102.856" cy="30.86" rx="7.634" ry="7.797"/>
</g>
</svg>
