<?xml version="1.0" encoding="iso-8859-1"?>
<!-- Generator: Adobe Illustrator 29.6.1, SVG Export Plug-In . SVG Version: 9.03 Build 0)  -->
<svg version="1.1" id="Tryb_izolacji" xmlns="http://www.w3.org/2000/svg" xmlns:xlink="http://www.w3.org/1999/xlink" x="0px"
	 y="0px" viewBox="0 0 117.676 98.064" style="enable-background:new 0 0 117.676 98.064;" xml:space="preserve">
<path id="Twitter_1_" style="fill:#b59464;" d="M114.43,1.813c-4.669,2.833-9.829,4.894-15.341,5.999
	C94.696,3.003,88.418,0,81.469,0C68.145,0,57.336,11.085,57.336,24.755c0,1.941,0.207,3.825,0.622,5.638
	C37.892,29.359,20.107,19.514,8.192,4.519c-2.079,3.669-3.267,7.926-3.267,12.459c0,8.585,4.262,16.163,10.741,20.604
	c-3.951-0.12-7.681-1.247-10.941-3.088v0.304c0,11.999,8.323,22.007,19.374,24.273c-2.024,0.581-4.158,0.871-6.362,0.871
	c-1.554,0-3.074-0.149-4.545-0.439c3.074,9.831,11.984,16.992,22.552,17.183c-8.261,6.644-18.677,10.604-29.984,10.604
	c-1.948,0-3.875-0.114-5.761-0.34c10.685,7.012,23.381,11.113,37.008,11.113c44.413,0,68.691-37.717,68.691-70.433
	c0-1.077-0.021-2.153-0.062-3.209c4.717-3.492,8.813-7.848,12.039-12.813c-4.324,1.969-8.979,3.301-13.863,3.896
	C108.801,12.445,112.627,7.593,114.43,1.813z"/>
</svg>
