<?xml version="1.0" encoding="iso-8859-1"?>
<!-- Generator: Adobe Illustrator 29.6.1, SVG Export Plug-In . SVG Version: 9.03 Build 0)  -->
<svg version="1.1" id="Warstwa_1" xmlns="http://www.w3.org/2000/svg" xmlns:xlink="http://www.w3.org/1999/xlink" x="0px" y="0px"
	 viewBox="0 0 273.443 8.386" style="enable-background:new 0 0 273.443 8.386;" xml:space="preserve">
<path style="fill:#EE7211;" d="M1.975,0.879c0,0-1.661,2.216-1.668,2.565s0.231,1.145,0.782,1.283
	c0.552,0.138,2.296,0.046,2.296,0.046l0.756,1.798l79.159-0.226L89.88,6.92l62.378,0.153l1.272-0.228c0,0,67.34-1.797,71.136-1.499
	s46.335,2.757,46.335,2.757l2.105-0.972c0,0,0.226-0.708-0.562-0.914c-0.788-0.206-10.434-1.905-11.842-2.044
	c-1.407-0.139-44.417-1.71-60.765-1.848s-55.062-0.534-55.062-0.534l-0.962,0.551L45.01,1.183l-4.699,0.476L1.975,0.879z"/>
</svg>
