<?xml version="1.0" encoding="iso-8859-1"?>
<!-- Generator: Adobe Illustrator 29.6.1, SVG Export Plug-In . SVG Version: 9.03 Build 0)  -->
<svg version="1.1" id="Warstwa_1" xmlns="http://www.w3.org/2000/svg" xmlns:xlink="http://www.w3.org/1999/xlink" x="0px" y="0px"
	 viewBox="0 0 226.1 114.759" style="enable-background:new 0 0 226.1 114.759;" xml:space="preserve">
<g>
	<path style="fill:#C7A77B;" d="M6.355,7.997C6.499,7.662,6.69,7.494,7.002,7.494c0.215,0,0.479,0.024,0.838,0.479
		c0.144,0.192,0.407,0.359,0.407,0.575c0,0.191,0,0.288-0.072,0.383c-0.503,0.767-1.006,1.677-1.198,2.036l-1.246,2.348
		c-0.144,0.264-0.646,0.479-0.862,0.479c-0.167,0-0.312-0.048-0.479-0.096c-0.168-0.048-0.312-0.072-0.455-0.072
		c-0.168,0-0.383-0.383-0.383-0.527c0-0.144,0.096-0.12,0.312-0.479c0.527-0.886,1.054-1.772,1.533-2.635
		C5.66,9.506,6.115,8.572,6.355,7.997z M9.781,8.548c0.12-0.312,0.288-0.359,0.551-0.359c0.12,0,0.719,0,1.006,0.288
		c0.192,0.191,0.264,0.527,0.264,0.814c0,0.694-0.743,1.413-1.246,2.252L8.895,14.01c-0.144,0.24-0.456,0.431-0.815,0.431
		c-0.335,0-0.623-0.144-0.767-0.167c-0.215-0.024-0.359-0.335-0.359-0.479c0-0.144,0.024-0.239,0.144-0.455l1.485-2.587
		C8.895,10.201,9.709,8.74,9.781,8.548z"/>
	<path style="fill:#C7A77B;" d="M16.634,10.656c-0.096,0.096-0.144,0.144-0.312,0.575c-1.365,3.498-2.491,7.115-3.737,10.852
		c-0.024,0.072-0.048,0.144-0.048,0.24c0,0.12,0.048,0.215,0.048,0.359c0,0.383-0.12,0.791-0.456,1.461
		c-0.048,0.096-0.215,0.096-0.311,0.096c-0.12,0-0.216,0.12-0.288,0.239c-0.072,0.12-0.168,0.192-0.216,0.192
		c-0.191,0-0.191-0.24-0.407-0.24c-0.288,0-0.623-0.359-0.743-0.359c-0.096,0-0.144-0.072-0.144-0.144
		c0-0.12,0.24-1.414,0.455-1.797c0.096-0.167,0.144-0.288,0.216-0.575c0.934-3.785,2.204-6.947,3.377-10.613
		c0.216-0.671,0.479-0.719,0.958-2.348c0.072-0.24,0.431-0.288,0.958-0.288c0.479,0,1.366,0.312,1.366,0.695
		C17.353,9.818,17.209,10.082,16.634,10.656z"/>
	<path style="fill:#C7A77B;" d="M37.736,7.015c-0.216,0.312-0.288,0.623-0.551,1.03c-1.39,2.228-3.21,4.648-4.001,6.828
		l-0.383,1.054c-1.438,4.024-1.821,5.773-1.821,6.636c0,0.863,0.192,1.15,0.192,1.342c0,0.072-0.024,0.096-0.096,0.167
		c-0.335,0.335-0.264,0.503-0.863,0.503c-0.215,0-0.838-0.312-0.862-0.456c-0.096-0.551-0.144-1.054-0.144-1.557
		c0-1.246,0.263-2.276,0.623-3.545c0.192-0.671,0.743-1.677,0.743-1.725c0-0.024,0-0.048-0.048-0.048s-0.096,0.048-0.239,0.216
		c-1.917,2.228-3.785,4.576-6.133,5.989c-0.24,0.144-0.527,0.167-0.719,0.167c-0.479,0-1.605-0.575-1.701-0.743
		c-0.264-0.455-0.407-0.886-0.407-1.365c0-0.671,0.264-1.461,0.838-2.563c1.15-2.18,3.042-4.049,5.055-5.39
		c0.359-0.24,1.102-0.455,1.725-0.455c0.264,0,0.503,0.048,0.671,0.12c0.312,0.144,0.838,0.264,1.126,0.455
		c0.12,0,0.167,0,0.191-0.024c2.492-2.707,3.521-5.75,5.582-8.457c0.144-0.191,0.239-0.288,0.551-0.288s1.174,0.383,1.174,0.791
		C38.239,6.249,38.047,6.56,37.736,7.015z M29.399,14.513c-0.239,0-0.407,0.024-0.599,0.12c-2.324,1.174-4.6,3.713-5.582,6.348
		c-0.024,0.072-0.072,0.24-0.072,0.312c0,0.24,0.048,0.551,0.167,0.551c0.096,0,0.144-0.024,0.24-0.096
		c0.144-0.12,0.288-0.12,0.503-0.288c2.061-1.605,3.833-3.761,5.39-5.845c0.288-0.383,0.503-0.455,0.503-0.862
		C29.95,14.609,29.782,14.513,29.399,14.513z"/>
	<path style="fill:#C7A77B;" d="M41.723,13.891c0.958,0,1.509-0.072,2.06-0.072c0.767,0,1.485,0.24,1.485,0.623
		c0,0.312-0.599,0.383-0.671,0.503c-0.048,0.096-0.096,0.12-0.263,0.144c-0.479,0.072-1.174,0.312-1.797,0.407
		c-0.479,0.072-0.767,0.072-0.935,0.072c-0.191,0-0.239,0.024-0.287,0.192c-0.623,2.563-1.485,4.791-3.019,6.42
		c-0.671,0.719-1.318,1.414-2.156,1.414c-0.215,0-0.431-0.048-0.575-0.12c-0.911-0.431-1.582-0.958-1.797-1.509
		c-0.264-0.671-0.359-1.39-0.359-1.988c0-1.965,0.982-3.689,2.084-5.342c0.335-0.503,0.335-0.383,0.575-0.719
		c0.767-1.078,1.773-2.204,2.827-2.204c0.383,0,0.863,0.096,1.27,0.455c0.191,0.168,0.263,0.216,0.335,0.407
		C40.717,13.172,41.028,13.891,41.723,13.891z M39.088,13.794c-0.072-0.239-0.144-0.407-0.24-0.407s-0.239,0.096-0.359,0.24
		c-0.096,0.12-0.335,0.24-0.455,0.407c-0.743,0.935-2.995,3.905-2.995,6.708c0,0.072,0,0.167,0.072,0.335
		c0.072,0.192,0.359,0.647,0.575,0.791c0.072,0.048,0.144,0.048,0.216,0.048c0.239,0,0.359-0.144,0.455-0.192
		c0.167-0.072,0.215-0.144,0.407-0.431c1.389-2.084,2.683-3.953,2.683-6.373c0-0.096,0-0.383-0.024-0.503
		c-0.024-0.167-0.072-0.191-0.144-0.264C39.16,14.034,39.112,13.891,39.088,13.794z"/>
	<path style="fill:#C7A77B;" d="M45.589,12.812c0.191-0.288,0.167-0.335,0.383-0.527c0.191-0.167,0.479-0.239,0.838-0.239
		c0.551,0,0.862,0.144,0.958,0.359c0.048,0.12,0.12,0.312,0.12,0.431c0,0.264-0.12,0.695-0.527,1.126
		c-0.263,0.288-0.934,1.054-1.533,2.156c-0.335,0.623-0.91,1.773-1.701,3.737c-0.167,0.431-0.479,1.605-0.479,1.677
		c0,0.096,0,0.239,0.072,0.239c0.144,0,0.24-0.072,0.407-0.312c3.234-4.6,5.007-5.558,5.534-6.684
		c0.432-0.91,0.527-0.982,0.839-0.982c0.359,0,0.479,0.216,0.862,0.24c0.264,0.024,0.479,0.359,0.479,0.647
		c0,0.096-0.12,0.431-0.24,0.623c-0.862,1.414-1.317,2.324-1.677,3.546c-0.144,0.479-0.288,1.677-0.288,2.156
		c0,0.431,0.144,0.791,0.192,1.03c0.072,0.431,0.671,0.743,0.838,0.862c0.192,0.144,0.359,0.312,0.359,0.551
		c0,0.167-0.167,0.575-0.623,0.575c-0.191,0-0.958-0.072-1.246-0.335c-0.335-0.312-0.623-0.407-0.934-0.838
		c-0.288-0.383-0.407-0.886-0.407-1.485c0-1.414,0.215-1.821,0.215-1.893c0-0.048-0.024-0.096-0.072-0.096s-0.072,0-0.144,0.096
		c-0.982,1.294-1.629,2.108-2.204,2.923c-0.503,0.719-0.695,0.695-1.03,1.054c-0.191,0.215-0.671,0.263-0.886,0.263
		c-0.288,0-1.414-0.719-1.725-1.102c-0.096-0.12-0.167-0.431-0.167-0.694c0-0.743,0.215-0.911,0.288-1.438
		c0.096-0.695,0.767-2.324,1.174-3.258C43.984,15.567,44.535,14.417,45.589,12.812z"/>
	<path style="fill:#C7A77B;" d="M57.231,8.644c0.12-0.312,0.335-0.455,0.575-0.455c0.072,0,0.167,0.024,0.312,0.024
		c0.144,0,0.527,0.072,0.719,0.264C59.028,8.668,59.1,9.003,59.1,9.315c0,0.67-0.527,1.03-1.246,2.228l-1.485,2.515
		c-0.144,0.24-0.551,0.383-0.767,0.383c-0.455,0-0.671-0.144-0.791-0.167c-0.215-0.048-0.359-0.312-0.359-0.575
		c0-0.096,0.024-0.144,0.144-0.359l1.485-2.587C56.297,10.369,57.159,8.836,57.231,8.644z"/>
	<path style="fill:#C7A77B;" d="M63.518,13.459c-0.24,0.503-0.551,1.413-0.551,1.485c0,0.048,0.048,0.072,0.096,0.072
		c0.072,0,0.359-0.048,0.599-0.096c1.054-0.215,2.419-0.718,3.21-1.198c0.12-0.072,0.216-0.12,0.264-0.12
		c0.407,0,1.174,0.335,1.174,0.623c0,0.311-0.263,0.694-0.791,0.91c-0.647,0.264-0.647,0.335-1.078,0.503
		c-1.174,0.455-3.21,0.911-3.713,1.078c-0.216,0.072-0.359,0.192-0.456,0.359c-0.191,0.335-0.311,0.791-0.407,1.15
		c-0.072,0.264-0.215,0.503-0.263,0.767c-0.144,0.791-0.958,2.827-1.102,4.024c-0.024,0.216-0.264,0.839-0.599,1.006
		c-0.096,0.048-0.263,0.072-0.359,0.072c-0.287,0-0.67-0.12-0.862-0.263c-0.191-0.144-0.264-0.359-0.264-0.575
		c0-0.191,0.024-0.503,0.096-0.719c0.599-1.772,1.03-3.857,1.796-5.702c0.024-0.072,0.048-0.12,0.048-0.167s-0.024-0.096-0.12-0.144
		c-0.862-0.432-1.006-1.054-1.557-1.509c-0.12-0.096-0.12-0.216-0.12-0.288c0-0.168,0.096-0.216,0.288-0.312
		c0.144-0.072,0.263-0.12,0.479-0.12c0.527,0,1.126,0.383,1.557,0.383c0.215,0,0.359-0.12,0.407-0.335
		c0.072-0.264,0.191-0.623,0.383-1.126c0.575-1.461,1.222-3.33,2.036-5.079c0.144-0.312,0.168-0.312,0.264-0.312
		c0.383,0,0.431-0.12,0.671-0.12c0.215,0,0.623,0.072,0.91,0.191c0.12,0.048,0.216,0.096,0.216,0.168c0,0.048,0,0.12-0.024,0.263
		C65.434,10.201,64.284,11.83,63.518,13.459z"/>
	<path style="fill:#C7A77B;" d="M75.252,13.004c-0.144,0.216-0.24,0.551-0.312,0.719c-0.958,2.276-1.629,4.624-2.42,6.995
		c-0.072,0.216-0.096,0.312-0.096,0.384c0,0.048,0.024,0.072,0.072,0.072c0.072,0,0.216-0.048,0.911-0.863
		c1.461-1.725,2.779-3.617,3.593-5.582c0.12-0.288,0.359-0.335,0.623-0.335c0.239,0,0.383,0.048,0.551,0.048
		c0.359,0,0.743,0.383,0.743,0.719c0,0.359-0.167,0.695-0.791,1.749c-0.335,0.575-0.383,0.934-0.503,1.198
		c-0.527,1.174-0.887,2.539-0.887,3.881c0,0.312,0.264,0.455,0.359,0.455c0.144,0,0.575-0.12,1.03-0.695
		c1.414-1.797,1.653-4.576,1.653-4.815c0-0.335,0.12-0.599,0.12-0.887c0-0.67-0.479-1.413-0.479-1.964
		c0-0.144,0.048-0.407,0.264-0.575c0.12-0.096,0.791-0.144,1.006-0.144c0.383,0,0.215,0.144,0.91,0.599
		c0.431,0.288,0.814,0.359,1.821,0.359c1.03,0,1.964-0.288,3.21-0.288c0.216,0,0.551,0,0.551,0.671c0,0.312-0.407,0.575-1.15,0.743
		c-1.509,0.359-1.964,0.623-2.683,0.623c-1.006,0-1.342-0.191-1.533-0.191c-0.168,0-0.216,0.12-0.216,0.312
		c0,0.215,0,0.719-0.024,0.982c-0.12,2.396-1.126,4.768-2.803,6.444c-0.24,0.24-0.503,0.407-1.054,0.407
		c-0.623,0-1.414-0.312-2.036-0.671c-0.288-0.167-0.671-0.551-0.671-1.102c0-0.431,0.072-0.646,0.072-0.934
		c0-0.12-0.024-0.191-0.072-0.191c-0.072,0-0.168,0.096-0.383,0.311c-0.719,0.719-1.198,1.749-2.228,1.749
		c-0.383,0-0.431-0.168-1.006-0.383c-0.384-0.144-0.695-0.383-0.743-0.479c-0.048-0.096-0.168-0.431-0.168-0.695
		s0.048-0.479,0.096-0.647c0.719-2.898,2.18-5.702,2.587-8.504c0.024-0.167,0.288-0.407,0.455-0.455
		c0.216-0.072,0.407-0.072,0.575-0.072c0.239,0,0.431,0.024,0.671,0.024c0.167,0,0.575,0.239,0.575,0.551
		C75.443,12.669,75.348,12.86,75.252,13.004z"/>
	<path style="fill:#C7A77B;" d="M95.009,13.627c0.12,0,0.479,0.024,0.671,0.312c0.048,0.072,0.048,0.096,0.048,0.144
		c0,0.096-0.048,0.192-0.096,0.264c-1.054,1.438-2.324,3.234-2.779,5.079c-0.168,0.671-0.335,1.39-0.335,2.132
		c0,0.623,0.144,1.246,0.503,1.796c0.024,0.048,0.048,0.096,0.048,0.144s-0.096,0.287-0.503,0.335
		c-0.144,0.024-0.312,0.096-0.455,0.096c-0.359,0-0.887-0.168-1.03-0.479c-0.312-0.695-0.407-1.39-0.407-2.061
		c0-0.719,0.096-1.126,0.096-1.198c0-0.096,0-0.12-0.096-0.12s-0.312,0.167-0.575,0.431L88.804,21.7
		c-1.246,1.174-2.012,1.509-2.851,1.797c-0.144,0.048-0.288,0.096-0.383,0.096c-0.264,0-0.551-0.167-1.677-1.078
		c-0.12-0.096-0.527-0.503-0.527-1.413c0-0.791,0.264-1.797,1.438-3.546c1.413-2.108,2.731-3.066,3.45-3.593
		c1.174-0.862,2.419-1.485,3.833-1.893c0.167-0.048,0.359-0.072,0.527-0.072c0.551,0,1.03,0.263,1.461,0.695
		c0.12,0.12,0.312,0.335,0.359,0.479C94.53,13.411,94.746,13.627,95.009,13.627z M92.158,13.723
		c-2.252,1.198-4.025,2.516-5.39,4.168c-1.006,1.222-1.797,2.635-1.797,3.33c0,0.288,0.096,0.647,0.527,0.647
		c0.192,0,0.743-0.264,1.174-0.671c2.228-2.084,4.743-3.689,5.965-5.965c0.168-0.312,0.431-0.647,0.695-0.91
		c0.072-0.072,0.12-0.216,0.12-0.359c0-0.168-0.144-0.479-0.551-0.479C92.829,13.483,92.47,13.555,92.158,13.723z"/>
	<path style="fill:#C7A77B;" d="M98.101,12.812c0.191-0.288,0.167-0.335,0.383-0.527c0.191-0.167,0.479-0.239,0.838-0.239
		c0.551,0,0.862,0.144,0.958,0.359c0.048,0.12,0.12,0.312,0.12,0.431c0,0.264-0.12,0.695-0.527,1.126
		c-0.263,0.288-0.934,1.054-1.533,2.156c-0.335,0.623-0.91,1.773-1.701,3.737c-0.168,0.431-0.479,1.605-0.479,1.677
		c0,0.096,0,0.239,0.072,0.239c0.144,0,0.239-0.072,0.407-0.312c3.234-4.6,5.007-5.558,5.534-6.684
		c0.431-0.91,0.527-0.982,0.839-0.982c0.359,0,0.479,0.216,0.862,0.24c0.263,0.024,0.479,0.359,0.479,0.647
		c0,0.096-0.12,0.431-0.24,0.623c-0.862,1.414-1.317,2.324-1.677,3.546c-0.144,0.479-0.288,1.677-0.288,2.156
		c0,0.431,0.144,0.791,0.192,1.03c0.072,0.431,0.671,0.743,0.838,0.862c0.191,0.144,0.359,0.312,0.359,0.551
		c0,0.167-0.168,0.575-0.623,0.575c-0.191,0-0.958-0.072-1.246-0.335c-0.335-0.312-0.623-0.407-0.934-0.838
		c-0.288-0.383-0.407-0.886-0.407-1.485c0-1.414,0.215-1.821,0.215-1.893c0-0.048-0.024-0.096-0.072-0.096s-0.072,0-0.144,0.096
		c-0.982,1.294-1.629,2.108-2.204,2.923c-0.503,0.719-0.695,0.695-1.03,1.054c-0.191,0.215-0.671,0.263-0.886,0.263
		c-0.288,0-1.414-0.719-1.725-1.102c-0.096-0.12-0.167-0.431-0.167-0.694c0-0.743,0.215-0.911,0.288-1.438
		c0.096-0.695,0.767-2.324,1.174-3.258C96.496,15.567,97.046,14.417,98.101,12.812z"/>
	<path style="fill:#C7A77B;" d="M109.616,13.459c-0.24,0.503-0.551,1.413-0.551,1.485c0,0.048,0.048,0.072,0.096,0.072
		c0.072,0,0.359-0.048,0.599-0.096c1.054-0.215,2.419-0.718,3.21-1.198c0.12-0.072,0.216-0.12,0.264-0.12
		c0.407,0,1.174,0.335,1.174,0.623c0,0.311-0.264,0.694-0.791,0.91c-0.647,0.264-0.647,0.335-1.078,0.503
		c-1.174,0.455-3.21,0.911-3.713,1.078c-0.216,0.072-0.359,0.192-0.456,0.359c-0.191,0.335-0.311,0.791-0.407,1.15
		c-0.072,0.264-0.215,0.503-0.263,0.767c-0.144,0.791-0.958,2.827-1.102,4.024c-0.024,0.216-0.264,0.839-0.599,1.006
		c-0.096,0.048-0.263,0.072-0.359,0.072c-0.287,0-0.67-0.12-0.862-0.263c-0.191-0.144-0.264-0.359-0.264-0.575
		c0-0.191,0.024-0.503,0.096-0.719c0.599-1.772,1.03-3.857,1.796-5.702c0.024-0.072,0.048-0.12,0.048-0.167s-0.024-0.096-0.12-0.144
		c-0.862-0.432-1.006-1.054-1.557-1.509c-0.12-0.096-0.12-0.216-0.12-0.288c0-0.168,0.096-0.216,0.287-0.312
		c0.144-0.072,0.264-0.12,0.479-0.12c0.527,0,1.126,0.383,1.557,0.383c0.215,0,0.359-0.12,0.407-0.335
		c0.072-0.264,0.191-0.623,0.383-1.126c0.575-1.461,1.222-3.33,2.036-5.079c0.144-0.312,0.168-0.312,0.264-0.312
		c0.383,0,0.431-0.12,0.671-0.12c0.215,0,0.623,0.072,0.91,0.191c0.12,0.048,0.216,0.096,0.216,0.168c0,0.048,0,0.12-0.024,0.263
		C111.532,10.201,110.382,11.83,109.616,13.459z"/>
	<path style="fill:#C7A77B;" d="M121.781,13.459c-0.24,0.503-0.551,1.413-0.551,1.485c0,0.048,0.048,0.072,0.096,0.072
		c0.072,0,0.359-0.048,0.599-0.096c1.054-0.215,2.419-0.718,3.21-1.198c0.12-0.072,0.216-0.12,0.264-0.12
		c0.407,0,1.174,0.335,1.174,0.623c0,0.311-0.263,0.694-0.791,0.91c-0.647,0.264-0.647,0.335-1.078,0.503
		c-1.174,0.455-3.21,0.911-3.713,1.078c-0.216,0.072-0.359,0.192-0.456,0.359c-0.191,0.335-0.311,0.791-0.407,1.15
		c-0.072,0.264-0.215,0.503-0.263,0.767c-0.144,0.791-0.958,2.827-1.102,4.024c-0.024,0.216-0.264,0.839-0.599,1.006
		c-0.096,0.048-0.263,0.072-0.359,0.072c-0.287,0-0.67-0.12-0.862-0.263c-0.191-0.144-0.264-0.359-0.264-0.575
		c0-0.191,0.024-0.503,0.096-0.719c0.599-1.772,1.03-3.857,1.796-5.702c0.024-0.072,0.048-0.12,0.048-0.167s-0.024-0.096-0.12-0.144
		c-0.862-0.432-1.006-1.054-1.557-1.509c-0.12-0.096-0.12-0.216-0.12-0.288c0-0.168,0.096-0.216,0.288-0.312
		c0.144-0.072,0.263-0.12,0.479-0.12c0.527,0,1.126,0.383,1.557,0.383c0.215,0,0.359-0.12,0.407-0.335
		c0.072-0.264,0.191-0.623,0.383-1.126c0.575-1.461,1.222-3.33,2.036-5.079c0.144-0.312,0.168-0.312,0.264-0.312
		c0.383,0,0.431-0.12,0.671-0.12c0.215,0,0.623,0.072,0.91,0.191c0.12,0.048,0.216,0.096,0.216,0.168c0,0.048,0,0.12-0.024,0.263
		C123.698,10.201,122.548,11.83,121.781,13.459z"/>
	<path style="fill:#C7A77B;" d="M131.608,13.891c0.958,0,1.509-0.072,2.06-0.072c0.767,0,1.485,0.24,1.485,0.623
		c0,0.312-0.599,0.383-0.671,0.503c-0.048,0.096-0.096,0.12-0.263,0.144c-0.479,0.072-1.174,0.312-1.797,0.407
		c-0.479,0.072-0.767,0.072-0.935,0.072c-0.191,0-0.239,0.024-0.287,0.192c-0.623,2.563-1.485,4.791-3.019,6.42
		c-0.671,0.719-1.318,1.414-2.156,1.414c-0.215,0-0.431-0.048-0.575-0.12c-0.911-0.431-1.582-0.958-1.797-1.509
		c-0.264-0.671-0.359-1.39-0.359-1.988c0-1.965,0.982-3.689,2.084-5.342c0.335-0.503,0.335-0.383,0.575-0.719
		c0.767-1.078,1.773-2.204,2.827-2.204c0.383,0,0.863,0.096,1.27,0.455c0.191,0.168,0.263,0.216,0.335,0.407
		C130.602,13.172,130.913,13.891,131.608,13.891z M128.973,13.794c-0.072-0.239-0.144-0.407-0.24-0.407s-0.239,0.096-0.359,0.24
		c-0.096,0.12-0.335,0.24-0.455,0.407c-0.743,0.935-2.995,3.905-2.995,6.708c0,0.072,0,0.167,0.072,0.335
		c0.072,0.192,0.359,0.647,0.575,0.791c0.072,0.048,0.144,0.048,0.216,0.048c0.239,0,0.359-0.144,0.455-0.192
		c0.167-0.072,0.215-0.144,0.407-0.431c1.389-2.084,2.683-3.953,2.683-6.373c0-0.096,0-0.383-0.024-0.503
		c-0.024-0.167-0.072-0.191-0.144-0.264C129.044,14.034,128.997,13.891,128.973,13.794z"/>
	<path style="fill:#C7A77B;" d="M141.833,15.543c-0.024,0.072-0.048,0.167-0.024,0.167c0.048,0,0.144-0.12,0.191-0.167
		c1.054-1.222,2.108-2.276,3.187-2.851c0.239-0.12,0.312-0.144,0.383-0.144c0.695,0,1.413,0.431,2.012,0.814
		c0.216,0.144,0.479,0.359,0.479,0.958c0,0.791-0.072,1.246-0.167,1.677c-0.048,0.192,0.024,0.359-0.12,0.767
		c-1.15,3.21-1.845,4.911-3.426,6.349c-0.168,0.144-0.456,0.167-0.671,0.167c-0.551,0-1.39-0.455-1.629-0.695
		c-0.599-0.551-0.958-1.15-1.246-1.749c-0.024-0.072-0.072-0.12-0.144-0.12c-0.048,0-0.096,0.024-0.144,0.12
		c-1.485,2.803-2.3,4.887-3.139,8.409c-0.12,0.503,0.048,0.886-0.287,1.006c-0.312,0.12-0.575,0.144-0.839,0.144
		c-0.287,0-0.503-0.072-0.742-0.335c-0.144-0.168-0.312-0.192-0.335-0.551c0-0.096,0.024-0.215,0.12-0.527
		c1.414-4.624,4.48-11.332,5.318-16.434c0.072-0.407,0.144-0.431,0.288-0.479c0.287-0.096,0.551-0.264,0.91-0.264
		c0.383,0,0.791,0.216,0.791,0.479C142.599,13.292,142.144,14.322,141.833,15.543z M142,18.394
		c-0.167,0.264-0.167,0.383-0.167,0.695c0,0.527,0.767,2.563,1.366,2.563c0.072,0,0.12-0.024,0.191-0.096
		c0.791-0.743,1.701-3.114,1.773-3.402c0.886-2.707,0.934-3.737,0.934-3.809s-0.072-0.072-0.096-0.072s-0.072,0-0.168,0.048
		C144.156,15.4,142.958,16.885,142,18.394z"/>
	<path style="fill:#C7A77B;" d="M156.404,13.891c0.958,0,1.509-0.072,2.06-0.072c0.767,0,1.485,0.24,1.485,0.623
		c0,0.312-0.599,0.383-0.671,0.503c-0.048,0.096-0.096,0.12-0.263,0.144c-0.479,0.072-1.174,0.312-1.797,0.407
		c-0.479,0.072-0.767,0.072-0.935,0.072c-0.191,0-0.239,0.024-0.287,0.192c-0.623,2.563-1.485,4.791-3.019,6.42
		c-0.671,0.719-1.318,1.414-2.156,1.414c-0.215,0-0.431-0.048-0.575-0.12c-0.911-0.431-1.582-0.958-1.797-1.509
		c-0.264-0.671-0.359-1.39-0.359-1.988c0-1.965,0.982-3.689,2.084-5.342c0.335-0.503,0.335-0.383,0.575-0.719
		c0.767-1.078,1.773-2.204,2.827-2.204c0.383,0,0.863,0.096,1.27,0.455c0.191,0.168,0.263,0.216,0.335,0.407
		C155.397,13.172,155.709,13.891,156.404,13.891z M153.769,13.794c-0.072-0.239-0.144-0.407-0.24-0.407s-0.239,0.096-0.359,0.24
		c-0.096,0.12-0.335,0.24-0.455,0.407c-0.743,0.935-2.995,3.905-2.995,6.708c0,0.072,0,0.167,0.072,0.335
		c0.072,0.192,0.359,0.647,0.575,0.791c0.072,0.048,0.144,0.048,0.216,0.048c0.239,0,0.359-0.144,0.455-0.192
		c0.167-0.072,0.215-0.144,0.407-0.431c1.389-2.084,2.683-3.953,2.683-6.373c0-0.096,0-0.383-0.024-0.503
		c-0.024-0.167-0.072-0.191-0.144-0.264C153.84,14.034,153.792,13.891,153.769,13.794z"/>
	<path style="fill:#C7A77B;" d="M156.763,22.179c-0.048-0.263-0.072-0.527-0.072-0.814c0-1.102,0.503-2.204,1.03-3.569
		c1.03-2.683,3.162-6.516,4.983-9.63c0.407-0.695,0.551-2.037,1.485-2.037c0.335,0,0.527-0.048,0.791-0.048
		c0.24,0,0.503,0.096,0.623,0.264c0.144,0.216,0.191,0.431,0.191,0.671c0,0.312-0.096,0.599-0.239,0.838
		c-2.18,3.521-4.696,6.731-6.109,10.469c-0.383,0.982-0.911,1.893-0.911,2.947c0,0.288,0.024,0.575,0.12,0.886
		c0.072,0.216,0.263,0.288,0.479,0.288c0.144,0,0.288-0.024,0.407-0.096c1.054-0.647,2.228-2.683,3.33-2.683
		c0.192,0,0.815,0.167,0.815,0.551c0,0.312-0.24,0.407-0.479,0.671c-1.222,1.317-2.204,3.138-4.048,3.138
		C158.991,24.024,157.002,23.497,156.763,22.179z"/>
	<path style="fill:#C7A77B;" d="M173.717,13.627c0.12,0,0.479,0.024,0.671,0.312c0.048,0.072,0.048,0.096,0.048,0.144
		c0,0.096-0.048,0.192-0.096,0.264c-1.054,1.438-2.324,3.234-2.779,5.079c-0.168,0.671-0.335,1.39-0.335,2.132
		c0,0.623,0.144,1.246,0.503,1.796c0.024,0.048,0.048,0.096,0.048,0.144s-0.096,0.287-0.503,0.335
		c-0.144,0.024-0.312,0.096-0.455,0.096c-0.359,0-0.887-0.168-1.03-0.479c-0.312-0.695-0.407-1.39-0.407-2.061
		c0-0.719,0.096-1.126,0.096-1.198c0-0.096,0-0.12-0.096-0.12s-0.312,0.167-0.575,0.431l-1.293,1.198
		c-1.246,1.174-2.012,1.509-2.851,1.797c-0.144,0.048-0.288,0.096-0.383,0.096c-0.264,0-0.551-0.167-1.677-1.078
		c-0.12-0.096-0.527-0.503-0.527-1.413c0-0.791,0.264-1.797,1.438-3.546c1.413-2.108,2.731-3.066,3.45-3.593
		c1.174-0.862,2.419-1.485,3.833-1.893c0.167-0.048,0.359-0.072,0.527-0.072c0.551,0,1.03,0.263,1.461,0.695
		c0.12,0.12,0.312,0.335,0.359,0.479C173.238,13.411,173.454,13.627,173.717,13.627z M170.866,13.723
		c-2.252,1.198-4.025,2.516-5.39,4.168c-1.006,1.222-1.797,2.635-1.797,3.33c0,0.288,0.096,0.647,0.527,0.647
		c0.192,0,0.743-0.264,1.174-0.671c2.228-2.084,4.743-3.689,5.965-5.965c0.168-0.312,0.431-0.647,0.695-0.91
		c0.072-0.072,0.12-0.216,0.12-0.359c0-0.168-0.144-0.479-0.551-0.479C171.537,13.483,171.178,13.555,170.866,13.723z"/>
	<path style="fill:#C7A77B;" d="M177.584,14.441c0,0.264-0.048,0.527-0.144,0.814c-0.072,0.288-0.096,0.335-0.096,0.383
		c0,0.072,0,0.096,0.072,0.096c0.024,0,0.12-0.024,0.312-0.192c1.317-1.006,2.467-1.677,3.33-1.964
		c0.072-0.024,0.216-0.048,0.288-0.048c0.671,0,1.342,0.191,1.749,0.671c0.096,0.096,0.167,0.263,0.167,0.407
		c0,0.742-0.646,1.054-0.838,1.054c-0.359,0-0.743-0.239-1.078-0.239c-0.072,0-0.167,0-0.383,0.096
		c-2.611,1.222-5.198,3.354-6.037,6.875c-0.167,0.719-0.431,1.03-0.599,1.15c-0.12,0.144-0.335,0.215-0.431,0.215
		c-0.383-0.024-0.551-0.311-0.719-0.503c-0.24-0.24-0.431-0.623-0.455-0.91c0-0.814,1.006-1.605,1.293-2.516
		c0.599-1.821,1.27-3.617,1.653-5.534c0.024-0.216,0.048-0.335,0.048-0.383c0-0.144-0.192-0.335-0.216-0.551
		c0-0.191,0.383-0.527,0.934-0.527c0.335,0,0.719,0.144,0.791,0.264C177.441,13.436,177.584,13.867,177.584,14.441z"/>
	<path style="fill:#C7A77B;" d="M185.366,22.778c-0.503,0.455-1.39,1.15-2.468,1.15c-0.719,0-1.533-1.006-1.796-1.893
		c-0.096-0.335-0.12-0.671-0.12-1.006c0-0.599,0.096-1.126,0.383-1.94c0.168-0.455,0.264-0.862,0.407-1.198
		c0.743-1.749,1.438-3.474,2.324-5.318c0.239-0.503,0.742-0.646,1.198-0.646c0.239,0,0.551,0.048,0.718,0.191
		c0.12,0.096,0.192,0.167,0.192,0.383c0,1.27-0.982,1.869-1.533,3.042c-0.407,0.886-1.078,2.516-1.414,3.402
		c-0.407,1.078-0.575,1.988-0.575,2.348c0,0.216,0.024,0.767,0.431,0.767c0.527,0,0.791-0.144,1.749-0.814
		c0.575-0.407,0.742-0.527,1.125-0.527c0.192,0,0.456,0.048,0.599,0.168s0.144,0.24,0.144,0.335c0,0.263-0.144,0.407-0.383,0.647
		L185.366,22.778z M188.696,7.83c0,0.144-0.024,0.312-0.12,0.431c-0.431,0.527-1.006,1.174-1.533,1.174
		c-0.479,0-0.838-0.264-0.958-0.479c-0.12-0.24-0.168-0.551-0.168-0.814c0-0.335,0.096-0.743,0.312-1.006
		c0.24-0.288,0.671-0.407,1.174-0.407c0.383,0,0.838,0.12,1.006,0.312C188.647,7.303,188.696,7.59,188.696,7.83z"/>
	<path style="fill:#C7A77B;" d="M195.399,14.274c0,0.743-0.599,1.03-1.701,1.917c-0.12,0.096-0.144,0.12-0.144,0.191
		s0.096,0.072,0.264,0.072c0.623,0,1.438,0.144,1.893,0.647c0.167,0.192,0.191,0.24,0.191,0.359
		c-0.096,0.24-0.215,0.359-0.551,0.359c-0.838,0-2.611,0.24-4.049,0.671c-0.646,0.191-0.719,0.239-1.03,0.527
		c-0.743,0.695-1.725,1.917-2.3,2.419c-0.192,0.168-0.288,0.551-0.288,0.647c0,0.144,0.072,0.24,0.335,0.359
		c0.312,0.144,0.479,0.192,0.695,0.192c0.479,0,1.054-0.288,1.581-0.288c1.03,0,1.82-0.935,2.803-0.935
		c0.335,0,0.695,0.096,1.078,0.431c0.144,0.12,0.167,0.264,0.167,0.456c0,0.072,0,0.144-0.239,0.239
		c-1.557,0.623-3.282,1.461-5.103,1.461c-0.838,0-1.869-0.24-2.515-0.623c-0.575-0.335-0.719-0.958-0.719-1.485
		c0-0.168,0.024-0.479,0.072-0.599c0.312-0.671,0.862-1.198,1.366-1.749c0.239-0.263,0.407-0.455,0.407-0.551s0-0.12-0.312-0.216
		c-0.288-0.096-0.575-0.191-0.743-0.503c-0.216-0.383-0.288-0.527-0.288-0.791c0-0.215,0.312-0.455,0.623-0.455
		c0.527,0,0.982,0.335,1.772,0.335c1.629,0,2.228-1.557,3.33-2.156c0.623-0.335,1.126-0.91,1.126-1.198
		c0-0.12-0.24-0.167-0.383-0.167c-0.383,0-0.479,0.167-1.198,0.239c-0.934,0.096-1.677,0.551-2.228,1.198
		c-0.024,0.024-0.048,0.048-0.215,0.048c-0.168,0-0.575-0.335-0.695-0.694c-0.072-0.216-0.12-0.407-0.12-0.575
		c0-0.407,0.192-0.647,0.479-0.719c1.174-0.288,2.563-0.791,3.833-0.791c0.934,0,1.893,0.335,2.084,0.575
		c0.144,0.167,0.503,0.335,0.623,0.646C195.375,13.962,195.399,14.13,195.399,14.274z"/>
	<path style="fill:#C7A77B;" d="M199.368,23.904c-0.288,0-0.527-0.024-0.911-0.168c-0.527-0.191-1.365-0.575-1.533-0.67
		c-0.479-0.264-0.934-0.863-1.198-1.653c-0.167-0.479-0.288-1.389-0.288-1.844c0-0.216,0.024-0.456,0.12-0.791
		c0.67-2.443,2.3-4.551,4.12-6.492c0.407-0.431,1.39-1.078,2.563-1.078c0.647,0,0.982,0.096,1.461,0.263
		c0.264,0.096,0.767,0.527,0.767,1.485c0,0.623-0.264,1.15-0.551,1.725c-0.239,0.479-0.431,0.743-0.767,1.126
		c-1.653,1.869-3.521,3.953-5.558,5.079c-0.12,0.072-0.144,0.12-0.144,0.191c0,0.383,0.359,0.887,0.575,1.006
		c0.264,0.144,0.503,0.192,0.743,0.192c0.407,0,0.767-0.096,1.845-0.671c1.653-0.887,2.659-2.18,4.096-3.09
		c0.264-0.168,0.384-0.168,0.479-0.168c0.144,0,0.479,0.24,0.479,0.479c0,0.215-0.024,0.239-0.024,0.311c0,0.096,0,0.24-0.12,0.335
		c-1.15,0.982-1.653,2.18-5.294,4.192C199.799,23.904,199.679,23.904,199.368,23.904z M202.458,12.956c0-0.191,0-0.287-0.144-0.287
		c-0.144,0-0.287,0.072-0.503,0.215c-0.264,0.167-0.24,0.096-0.479,0.312c-1.557,1.389-3.234,3.354-3.761,5.486
		c0,0.096,0.024,0.12,0.048,0.12c0.048,0,0.096-0.024,0.167-0.072c1.414-1.078,2.587-2.396,3.666-3.689
		c0.359-0.431,0.264-0.503,0.575-0.982C202.266,13.699,202.458,13.387,202.458,12.956z"/>
	<path style="fill:#C7A77B;" d="M221.882,17.724c-0.049,0.12-0.192,0.167-0.264,0.167h-0.575c-1.82,0-3.81,0.168-5.75,0.168
		c-1.245,0-2.73-0.048-3.066-0.192c-0.287-0.12-0.526-0.719-0.526-1.461c0-0.215,0.264-0.383,0.814-0.383
		c0.383,0,1.629,0.192,3.785,0.192c1.438,0,2.18-0.096,3.282-0.096c0.862,0,0.981-0.12,1.509-0.12c0.264,0,0.623,0.072,0.91,0.359
		c0.072,0.072,0.072,0.216,0.072,0.359C222.073,17.101,222.001,17.412,221.882,17.724z"/>
	<path style="fill:#C7A77B;" d="M8.894,36.423c-0.096,0.096-0.144,0.144-0.312,0.575c-1.365,3.498-2.491,7.115-3.737,10.852
		c-0.024,0.072-0.048,0.144-0.048,0.24c0,0.12,0.048,0.215,0.048,0.359c0,0.383-0.12,0.791-0.456,1.461
		c-0.048,0.096-0.215,0.096-0.311,0.096c-0.12,0-0.216,0.12-0.288,0.239c-0.072,0.12-0.168,0.192-0.216,0.192
		c-0.191,0-0.191-0.24-0.407-0.24c-0.288,0-0.623-0.359-0.743-0.359c-0.096,0-0.144-0.072-0.144-0.144
		c0-0.12,0.24-1.414,0.455-1.797c0.096-0.167,0.144-0.288,0.216-0.575c0.934-3.785,2.204-6.947,3.377-10.613
		c0.216-0.671,0.479-0.719,0.958-2.348c0.072-0.24,0.431-0.288,0.958-0.288c0.479,0,1.366,0.312,1.366,0.695
		C9.613,35.584,9.469,35.848,8.894,36.423z"/>
	<path style="fill:#C7A77B;" d="M19.12,38.771c-0.144,0.216-0.24,0.551-0.312,0.719c-0.958,2.276-1.629,4.624-2.42,6.995
		c-0.072,0.216-0.096,0.312-0.096,0.384c0,0.048,0.024,0.072,0.072,0.072c0.072,0,0.216-0.048,0.911-0.863
		c1.461-1.725,2.779-3.617,3.593-5.582c0.12-0.288,0.359-0.335,0.623-0.335c0.239,0,0.383,0.048,0.551,0.048
		c0.359,0,0.743,0.383,0.743,0.719c0,0.359-0.167,0.695-0.791,1.749c-0.335,0.575-0.383,0.934-0.503,1.198
		c-0.527,1.174-0.887,2.539-0.887,3.881c0,0.312,0.264,0.455,0.359,0.455c0.144,0,0.575-0.12,1.03-0.695
		c1.414-1.797,1.653-4.576,1.653-4.815c0-0.335,0.12-0.599,0.12-0.887c0-0.67-0.479-1.413-0.479-1.964
		c0-0.144,0.048-0.407,0.264-0.575c0.12-0.096,0.791-0.144,1.006-0.144c0.383,0,0.215,0.144,0.91,0.599
		c0.431,0.288,0.814,0.359,1.821,0.359c1.03,0,1.964-0.288,3.21-0.288c0.216,0,0.551,0,0.551,0.671c0,0.312-0.407,0.575-1.15,0.743
		c-1.509,0.359-1.964,0.623-2.683,0.623c-1.006,0-1.342-0.191-1.533-0.191c-0.168,0-0.216,0.12-0.216,0.312
		c0,0.215,0,0.719-0.024,0.982c-0.12,2.396-1.126,4.768-2.803,6.444c-0.24,0.24-0.503,0.407-1.054,0.407
		c-0.623,0-1.414-0.312-2.036-0.671c-0.288-0.167-0.671-0.551-0.671-1.102c0-0.431,0.072-0.646,0.072-0.934
		c0-0.12-0.024-0.191-0.072-0.191c-0.072,0-0.167,0.096-0.383,0.311c-0.719,0.719-1.198,1.749-2.228,1.749
		c-0.383,0-0.431-0.168-1.006-0.383c-0.383-0.144-0.694-0.383-0.742-0.479c-0.048-0.096-0.168-0.431-0.168-0.695
		s0.048-0.479,0.096-0.647c0.719-2.898,2.18-5.702,2.587-8.504c0.024-0.167,0.288-0.407,0.455-0.455
		c0.216-0.072,0.407-0.072,0.575-0.072c0.239,0,0.431,0.024,0.671,0.024c0.167,0,0.575,0.239,0.575,0.551
		C19.311,38.436,19.215,38.627,19.12,38.771z"/>
	<path style="fill:#C7A77B;" d="M38.876,39.394c0.12,0,0.479,0.024,0.671,0.312c0.048,0.072,0.048,0.096,0.048,0.144
		c0,0.096-0.048,0.192-0.096,0.264c-1.054,1.438-2.324,3.234-2.779,5.079c-0.168,0.671-0.335,1.39-0.335,2.132
		c0,0.623,0.144,1.246,0.503,1.796c0.024,0.048,0.048,0.096,0.048,0.144s-0.096,0.287-0.503,0.335
		c-0.144,0.024-0.312,0.096-0.455,0.096c-0.359,0-0.887-0.168-1.03-0.479c-0.312-0.695-0.407-1.39-0.407-2.061
		c0-0.719,0.096-1.126,0.096-1.198c0-0.096,0-0.12-0.096-0.12s-0.312,0.167-0.575,0.431l-1.293,1.198
		c-1.246,1.174-2.012,1.509-2.851,1.797c-0.144,0.048-0.288,0.096-0.383,0.096c-0.264,0-0.551-0.167-1.677-1.078
		c-0.12-0.096-0.527-0.503-0.527-1.413c0-0.791,0.264-1.797,1.438-3.546c1.413-2.108,2.731-3.066,3.45-3.593
		c1.174-0.862,2.419-1.485,3.833-1.893c0.167-0.048,0.359-0.072,0.527-0.072c0.551,0,1.03,0.263,1.461,0.695
		c0.12,0.12,0.312,0.335,0.359,0.479C38.397,39.178,38.613,39.394,38.876,39.394z M36.026,39.489
		c-2.252,1.198-4.025,2.516-5.39,4.168c-1.006,1.222-1.797,2.635-1.797,3.33c0,0.288,0.096,0.647,0.527,0.647
		c0.192,0,0.743-0.264,1.174-0.671c2.228-2.084,4.744-3.689,5.965-5.965c0.167-0.312,0.431-0.647,0.695-0.91
		c0.072-0.072,0.12-0.216,0.12-0.359c0-0.168-0.144-0.479-0.551-0.479C36.697,39.25,36.337,39.322,36.026,39.489z"/>
	<path style="fill:#C7A77B;" d="M41.968,38.579c0.191-0.288,0.167-0.335,0.383-0.527c0.191-0.167,0.479-0.239,0.838-0.239
		c0.551,0,0.862,0.144,0.958,0.359c0.048,0.12,0.12,0.312,0.12,0.431c0,0.264-0.12,0.695-0.527,1.126
		c-0.263,0.288-0.934,1.054-1.533,2.156c-0.335,0.623-0.91,1.773-1.701,3.737c-0.167,0.431-0.479,1.605-0.479,1.677
		c0,0.096,0,0.239,0.072,0.239c0.144,0,0.24-0.072,0.407-0.312c3.234-4.6,5.007-5.558,5.534-6.684
		c0.432-0.91,0.527-0.982,0.839-0.982c0.359,0,0.479,0.216,0.862,0.24c0.264,0.024,0.479,0.359,0.479,0.647
		c0,0.096-0.12,0.431-0.24,0.623c-0.862,1.414-1.317,2.324-1.677,3.546c-0.144,0.479-0.288,1.677-0.288,2.156
		c0,0.431,0.144,0.791,0.192,1.03c0.072,0.431,0.671,0.743,0.838,0.862c0.192,0.144,0.359,0.312,0.359,0.551
		c0,0.167-0.167,0.575-0.623,0.575c-0.191,0-0.958-0.072-1.246-0.335c-0.335-0.312-0.623-0.407-0.934-0.838
		c-0.288-0.383-0.407-0.886-0.407-1.485c0-1.414,0.215-1.821,0.215-1.893c0-0.048-0.024-0.096-0.072-0.096s-0.072,0-0.144,0.096
		c-0.982,1.294-1.629,2.108-2.204,2.923c-0.503,0.719-0.695,0.695-1.03,1.054c-0.191,0.215-0.671,0.263-0.886,0.263
		c-0.288,0-1.414-0.719-1.725-1.102c-0.096-0.12-0.167-0.431-0.167-0.694c0-0.743,0.215-0.911,0.288-1.438
		c0.096-0.695,0.767-2.324,1.174-3.258C40.363,41.334,40.914,40.184,41.968,38.579z"/>
	<path style="fill:#C7A77B;" d="M53.483,39.226c-0.24,0.503-0.551,1.413-0.551,1.485c0,0.048,0.048,0.072,0.096,0.072
		c0.072,0,0.359-0.048,0.599-0.096c1.054-0.215,2.419-0.718,3.21-1.198c0.12-0.072,0.216-0.12,0.264-0.12
		c0.407,0,1.174,0.335,1.174,0.623c0,0.311-0.263,0.694-0.791,0.91c-0.647,0.264-0.647,0.335-1.078,0.503
		c-1.174,0.455-3.21,0.911-3.713,1.078c-0.216,0.072-0.359,0.192-0.456,0.359c-0.191,0.335-0.311,0.791-0.407,1.15
		c-0.072,0.264-0.215,0.503-0.263,0.767c-0.144,0.791-0.958,2.827-1.102,4.024c-0.024,0.216-0.264,0.839-0.599,1.006
		c-0.096,0.048-0.263,0.072-0.359,0.072c-0.287,0-0.67-0.12-0.862-0.263c-0.191-0.144-0.264-0.359-0.264-0.575
		c0-0.191,0.024-0.503,0.096-0.719c0.599-1.772,1.03-3.857,1.796-5.702c0.024-0.072,0.048-0.12,0.048-0.167s-0.024-0.096-0.12-0.144
		c-0.862-0.432-1.006-1.054-1.557-1.509c-0.12-0.096-0.12-0.216-0.12-0.288c0-0.168,0.096-0.216,0.288-0.312
		c0.144-0.072,0.263-0.12,0.479-0.12c0.527,0,1.126,0.383,1.557,0.383c0.215,0,0.359-0.12,0.407-0.335
		c0.072-0.264,0.191-0.623,0.383-1.126c0.575-1.461,1.222-3.33,2.036-5.079c0.144-0.312,0.168-0.312,0.264-0.312
		c0.383,0,0.431-0.12,0.671-0.12c0.215,0,0.623,0.072,0.91,0.191c0.12,0.048,0.216,0.096,0.216,0.168c0,0.048,0,0.12-0.024,0.263
		C55.4,35.968,54.25,37.597,53.483,39.226z"/>
	<path style="fill:#C7A77B;" d="M65.649,39.226c-0.24,0.503-0.551,1.413-0.551,1.485c0,0.048,0.048,0.072,0.096,0.072
		c0.072,0,0.359-0.048,0.599-0.096c1.054-0.215,2.419-0.718,3.21-1.198c0.12-0.072,0.216-0.12,0.264-0.12
		c0.407,0,1.174,0.335,1.174,0.623c0,0.311-0.264,0.694-0.791,0.91c-0.647,0.264-0.647,0.335-1.078,0.503
		c-1.174,0.455-3.21,0.911-3.713,1.078c-0.216,0.072-0.359,0.192-0.456,0.359c-0.191,0.335-0.311,0.791-0.407,1.15
		c-0.072,0.264-0.215,0.503-0.263,0.767c-0.144,0.791-0.958,2.827-1.102,4.024c-0.024,0.216-0.264,0.839-0.599,1.006
		c-0.096,0.048-0.263,0.072-0.359,0.072c-0.287,0-0.67-0.12-0.862-0.263c-0.191-0.144-0.264-0.359-0.264-0.575
		c0-0.191,0.024-0.503,0.096-0.719c0.599-1.772,1.03-3.857,1.796-5.702c0.024-0.072,0.048-0.12,0.048-0.167s-0.024-0.096-0.12-0.144
		c-0.862-0.432-1.006-1.054-1.557-1.509c-0.12-0.096-0.12-0.216-0.12-0.288c0-0.168,0.096-0.216,0.287-0.312
		c0.144-0.072,0.264-0.12,0.479-0.12c0.527,0,1.126,0.383,1.557,0.383c0.215,0,0.359-0.12,0.407-0.335
		c0.072-0.264,0.191-0.623,0.383-1.126c0.575-1.461,1.222-3.33,2.036-5.079c0.144-0.312,0.168-0.312,0.264-0.312
		c0.383,0,0.431-0.12,0.671-0.12c0.215,0,0.623,0.072,0.91,0.191c0.12,0.048,0.216,0.096,0.216,0.168c0,0.048,0,0.12-0.024,0.263
		C67.565,35.968,66.416,37.597,65.649,39.226z"/>
	<path style="fill:#C7A77B;" d="M75.476,39.657c0.958,0,1.509-0.072,2.06-0.072c0.767,0,1.485,0.24,1.485,0.623
		c0,0.312-0.599,0.383-0.671,0.503c-0.048,0.096-0.096,0.12-0.264,0.144c-0.479,0.072-1.174,0.312-1.796,0.407
		c-0.479,0.072-0.767,0.072-0.935,0.072c-0.191,0-0.239,0.024-0.287,0.192c-0.623,2.563-1.485,4.791-3.019,6.42
		c-0.671,0.719-1.318,1.414-2.156,1.414c-0.215,0-0.431-0.048-0.575-0.12c-0.911-0.431-1.581-0.958-1.797-1.509
		c-0.264-0.671-0.359-1.39-0.359-1.988c0-1.965,0.982-3.689,2.084-5.342c0.335-0.503,0.335-0.383,0.575-0.719
		c0.767-1.078,1.773-2.204,2.827-2.204c0.383,0,0.863,0.096,1.27,0.455c0.191,0.168,0.263,0.216,0.335,0.407
		C74.469,38.938,74.781,39.657,75.476,39.657z M72.84,39.561c-0.072-0.239-0.144-0.407-0.24-0.407s-0.239,0.096-0.359,0.24
		c-0.096,0.12-0.335,0.24-0.455,0.407c-0.743,0.935-2.995,3.905-2.995,6.708c0,0.072,0,0.167,0.072,0.335
		c0.072,0.192,0.359,0.647,0.575,0.791c0.072,0.048,0.144,0.048,0.215,0.048c0.24,0,0.359-0.144,0.456-0.192
		c0.167-0.072,0.215-0.144,0.407-0.431c1.389-2.084,2.683-3.953,2.683-6.373c0-0.096,0-0.383-0.024-0.503
		c-0.024-0.167-0.072-0.191-0.144-0.264C72.912,39.801,72.864,39.657,72.84,39.561z"/>
	<path style="fill:#C7A77B;" d="M86.659,39.154c0,0.192-0.12,0.456-0.479,0.695c-0.191,0.12-0.503,0.383-0.695,1.126
		c-0.551,2.132-1.557,4.48-1.796,6.229c-0.048,0.312-0.048,0.432-0.048,0.551s0.167,0.335,0.335,0.335
		c0.072,0,0.359-0.096,0.527-0.24c0.862-0.767,0.862-0.958,1.27-1.39c1.485-1.605,2.803-3.377,3.569-5.366
		c0.12-0.311,0.144-0.359,0.432-0.527c0.215-0.12,0.359-0.144,0.551-0.144c0.192,0,0.407,0.191,0.575,0.239
		c0.383,0.12,0.479,0.288,0.479,0.431c0,0.383-0.048,0.479-0.144,0.695c-0.814,1.749-1.461,3.521-1.749,5.414
		c-0.072,0.503-0.144,1.102-0.144,1.773c0,0.599,0.432,1.078,0.432,1.605c0,0.168-0.048,0.359-0.144,0.431
		c-0.072,0.048-0.191,0.072-0.335,0.072c-0.335,0-0.646-0.191-0.91-0.359c-0.455-0.288-0.455-0.096-0.599-0.456
		c-0.191-0.479-0.239-0.958-0.239-1.437c0-0.599,0.072-1.39,0.072-1.629c0-0.072-0.024-0.144-0.096-0.144
		c-0.096,0-0.24,0.167-0.335,0.288c-0.814,0.958-1.677,1.821-2.683,2.324c-0.192,0.096-0.216,0.096-0.312,0.096
		s-0.838-0.096-1.438-0.455c-0.431-0.264-0.67-0.503-0.719-0.743c-0.072-0.359-0.12-0.791-0.12-1.03
		c0-0.862,0.312-1.917,0.551-2.731c0.191-0.647,0.191-0.886,0.407-1.509c0.503-1.438,0.767-2.947,1.677-4.504
		c0.264-0.455,0.647-0.623,1.03-0.623c0.239,0,0.694,0.12,0.814,0.383C86.467,38.723,86.659,38.891,86.659,39.154z"/>
	<path style="fill:#C7A77B;" d="M94.796,38.579c0.191-0.288,0.167-0.335,0.383-0.527c0.191-0.167,0.479-0.239,0.838-0.239
		c0.551,0,0.862,0.144,0.958,0.359c0.048,0.12,0.12,0.312,0.12,0.431c0,0.264-0.12,0.695-0.527,1.126
		c-0.263,0.288-0.934,1.054-1.533,2.156c-0.335,0.623-0.91,1.773-1.701,3.737c-0.168,0.431-0.479,1.605-0.479,1.677
		c0,0.096,0,0.239,0.072,0.239c0.144,0,0.239-0.072,0.407-0.312c3.234-4.6,5.007-5.558,5.534-6.684
		c0.431-0.91,0.527-0.982,0.839-0.982c0.359,0,0.479,0.216,0.862,0.24c0.263,0.024,0.479,0.359,0.479,0.647
		c0,0.096-0.12,0.431-0.24,0.623c-0.862,1.414-1.317,2.324-1.677,3.546c-0.144,0.479-0.288,1.677-0.288,2.156
		c0,0.431,0.144,0.791,0.192,1.03c0.072,0.431,0.671,0.743,0.838,0.862c0.191,0.144,0.359,0.312,0.359,0.551
		c0,0.167-0.168,0.575-0.623,0.575c-0.191,0-0.958-0.072-1.246-0.335c-0.335-0.312-0.623-0.407-0.934-0.838
		c-0.288-0.383-0.407-0.886-0.407-1.485c0-1.414,0.215-1.821,0.215-1.893c0-0.048-0.024-0.096-0.072-0.096s-0.072,0-0.144,0.096
		c-0.982,1.294-1.629,2.108-2.204,2.923c-0.503,0.719-0.695,0.695-1.03,1.054c-0.191,0.215-0.671,0.263-0.886,0.263
		c-0.288,0-1.414-0.719-1.725-1.102c-0.096-0.12-0.167-0.431-0.167-0.694c0-0.743,0.215-0.911,0.288-1.438
		c0.096-0.695,0.767-2.324,1.174-3.258C93.191,41.334,93.742,40.184,94.796,38.579z"/>
	<path style="fill:#C7A77B;" d="M105.451,48.545c-0.503,0.455-1.39,1.15-2.468,1.15c-0.719,0-1.533-1.006-1.796-1.893
		c-0.096-0.335-0.12-0.671-0.12-1.006c0-0.599,0.096-1.126,0.383-1.94c0.168-0.455,0.264-0.862,0.407-1.198
		c0.743-1.749,1.438-3.474,2.324-5.318c0.239-0.503,0.742-0.646,1.198-0.646c0.239,0,0.551,0.048,0.718,0.191
		c0.12,0.096,0.192,0.167,0.192,0.383c0,1.27-0.982,1.869-1.533,3.042c-0.407,0.886-1.078,2.516-1.414,3.402
		c-0.407,1.078-0.575,1.988-0.575,2.348c0,0.216,0.024,0.767,0.431,0.767c0.527,0,0.791-0.144,1.749-0.814
		c0.575-0.407,0.742-0.527,1.125-0.527c0.192,0,0.456,0.048,0.599,0.168s0.144,0.24,0.144,0.335c0,0.263-0.144,0.407-0.383,0.647
		L105.451,48.545z M108.781,33.596c0,0.144-0.024,0.312-0.12,0.431c-0.431,0.527-1.006,1.174-1.533,1.174
		c-0.479,0-0.838-0.264-0.958-0.479c-0.12-0.24-0.168-0.551-0.168-0.814c0-0.335,0.096-0.743,0.312-1.006
		c0.24-0.288,0.671-0.407,1.174-0.407c0.383,0,0.838,0.12,1.006,0.312C108.732,33.069,108.781,33.356,108.781,33.596z"/>
	<path style="fill:#C7A77B;" d="M111.445,39.226c-0.24,0.503-0.551,1.413-0.551,1.485c0,0.048,0.048,0.072,0.096,0.072
		c0.072,0,0.359-0.048,0.599-0.096c1.054-0.215,2.419-0.718,3.21-1.198c0.12-0.072,0.216-0.12,0.264-0.12
		c0.407,0,1.174,0.335,1.174,0.623c0,0.311-0.263,0.694-0.791,0.91c-0.647,0.264-0.647,0.335-1.078,0.503
		c-1.174,0.455-3.21,0.911-3.713,1.078c-0.216,0.072-0.359,0.192-0.456,0.359c-0.191,0.335-0.311,0.791-0.407,1.15
		c-0.072,0.264-0.215,0.503-0.263,0.767c-0.144,0.791-0.958,2.827-1.102,4.024c-0.024,0.216-0.264,0.839-0.599,1.006
		c-0.096,0.048-0.263,0.072-0.359,0.072c-0.287,0-0.67-0.12-0.862-0.263c-0.191-0.144-0.264-0.359-0.264-0.575
		c0-0.191,0.024-0.503,0.096-0.719c0.599-1.772,1.03-3.857,1.796-5.702c0.024-0.072,0.048-0.12,0.048-0.167s-0.024-0.096-0.12-0.144
		c-0.862-0.432-1.006-1.054-1.557-1.509c-0.12-0.096-0.12-0.216-0.12-0.288c0-0.168,0.096-0.216,0.288-0.312
		c0.144-0.072,0.263-0.12,0.479-0.12c0.527,0,1.126,0.383,1.557,0.383c0.215,0,0.359-0.12,0.407-0.335
		c0.072-0.264,0.191-0.623,0.383-1.126c0.575-1.461,1.222-3.33,2.036-5.079c0.144-0.312,0.168-0.312,0.264-0.312
		c0.383,0,0.431-0.12,0.671-0.12c0.215,0,0.623,0.072,0.91,0.191c0.12,0.048,0.216,0.096,0.216,0.168c0,0.048,0,0.12-0.024,0.263
		C113.362,35.968,112.212,37.597,111.445,39.226z"/>
	<path style="fill:#C7A77B;" d="M116.84,49.671c-0.288,0-0.527-0.024-0.911-0.168c-0.527-0.191-1.365-0.575-1.533-0.67
		c-0.479-0.264-0.934-0.863-1.198-1.653c-0.167-0.479-0.288-1.389-0.288-1.844c0-0.216,0.024-0.456,0.12-0.791
		c0.67-2.443,2.3-4.551,4.12-6.492c0.407-0.431,1.39-1.078,2.563-1.078c0.647,0,0.982,0.096,1.461,0.263
		c0.264,0.096,0.767,0.527,0.767,1.485c0,0.623-0.264,1.15-0.551,1.725c-0.239,0.479-0.431,0.743-0.767,1.126
		c-1.653,1.869-3.521,3.953-5.558,5.079c-0.12,0.072-0.144,0.12-0.144,0.191c0,0.383,0.359,0.887,0.575,1.006
		c0.264,0.144,0.503,0.192,0.743,0.192c0.407,0,0.767-0.096,1.845-0.671c1.653-0.887,2.659-2.18,4.096-3.09
		c0.264-0.168,0.384-0.168,0.479-0.168c0.144,0,0.479,0.24,0.479,0.479c0,0.215-0.024,0.239-0.024,0.311c0,0.096,0,0.24-0.12,0.335
		c-1.15,0.982-1.653,2.18-5.294,4.192C117.271,49.671,117.151,49.671,116.84,49.671z M119.931,38.723c0-0.191,0-0.287-0.144-0.287
		c-0.144,0-0.287,0.072-0.503,0.215c-0.264,0.167-0.24,0.096-0.479,0.312c-1.557,1.389-3.234,3.354-3.761,5.486
		c0,0.096,0.024,0.12,0.048,0.12c0.048,0,0.096-0.024,0.167-0.072c1.414-1.078,2.587-2.396,3.666-3.689
		c0.359-0.431,0.264-0.503,0.575-0.982C119.739,39.465,119.931,39.154,119.931,38.723z"/>
	<path style="fill:#C7A77B;" d="M126.269,48.521c-0.144,0.407-0.288,0.599-0.503,0.767c-0.264,0.215-0.527,0.215-0.886,0.215
		c-0.264,0-0.791-0.215-1.198-0.838c-0.144-0.215-0.191-0.431-0.191-0.551c0-0.168,0.096-0.383,0.191-0.479
		c0.168-0.168,0.288-0.408,0.312-0.647c0.024-0.24,0.12-0.455,0.24-0.599c0.144-0.167,0.383-0.191,0.791-0.191
		c0.527,0,1.054,0.383,1.246,0.743c0.168,0.311,0.192,0.479,0.192,0.646C126.46,47.778,126.34,48.305,126.269,48.521z"/>
	<path style="fill:#C7A77B;" d="M8.894,62.189c-0.096,0.096-0.144,0.144-0.312,0.575c-1.365,3.498-2.491,7.115-3.737,10.852
		c-0.024,0.072-0.048,0.144-0.048,0.24c0,0.12,0.048,0.215,0.048,0.359c0,0.383-0.12,0.791-0.456,1.461
		c-0.048,0.096-0.215,0.096-0.311,0.096c-0.12,0-0.216,0.12-0.288,0.239c-0.072,0.12-0.168,0.192-0.216,0.192
		c-0.191,0-0.191-0.24-0.407-0.24c-0.288,0-0.623-0.359-0.743-0.359c-0.096,0-0.144-0.072-0.144-0.144
		c0-0.12,0.24-1.414,0.455-1.797c0.096-0.167,0.144-0.288,0.216-0.575c0.934-3.785,2.204-6.947,3.377-10.613
		c0.216-0.671,0.479-0.719,0.958-2.348c0.072-0.24,0.431-0.288,0.958-0.288c0.479,0,1.366,0.312,1.366,0.695
		C9.613,61.351,9.469,61.614,8.894,62.189z"/>
	<path style="fill:#C7A77B;" d="M19.12,64.537c-0.144,0.216-0.24,0.551-0.312,0.719c-0.958,2.276-1.629,4.624-2.42,6.996
		c-0.072,0.215-0.096,0.311-0.096,0.383c0,0.048,0.024,0.072,0.072,0.072c0.072,0,0.216-0.048,0.911-0.863
		c1.461-1.725,2.779-3.617,3.593-5.582c0.12-0.288,0.359-0.335,0.623-0.335c0.239,0,0.383,0.048,0.551,0.048
		c0.359,0,0.743,0.383,0.743,0.719c0,0.359-0.167,0.695-0.791,1.749c-0.335,0.575-0.383,0.934-0.503,1.198
		c-0.527,1.174-0.887,2.539-0.887,3.881c0,0.312,0.264,0.455,0.359,0.455c0.144,0,0.575-0.12,1.03-0.695
		c1.414-1.796,1.653-4.576,1.653-4.815c0-0.335,0.12-0.599,0.12-0.887c0-0.67-0.479-1.413-0.479-1.964
		c0-0.144,0.048-0.407,0.264-0.575c0.12-0.096,0.791-0.144,1.006-0.144c0.383,0,0.215,0.144,0.91,0.599
		c0.431,0.288,0.814,0.359,1.821,0.359c1.03,0,1.964-0.288,3.21-0.288c0.216,0,0.551,0,0.551,0.671c0,0.312-0.407,0.575-1.15,0.743
		c-1.509,0.359-1.964,0.623-2.683,0.623c-1.006,0-1.342-0.191-1.533-0.191c-0.168,0-0.216,0.12-0.216,0.312
		c0,0.215,0,0.719-0.024,0.982c-0.12,2.396-1.126,4.768-2.803,6.444c-0.24,0.24-0.503,0.407-1.054,0.407
		c-0.623,0-1.414-0.312-2.036-0.671c-0.288-0.167-0.671-0.551-0.671-1.102c0-0.432,0.072-0.647,0.072-0.935
		c0-0.12-0.024-0.191-0.072-0.191c-0.072,0-0.167,0.096-0.383,0.311c-0.719,0.719-1.198,1.749-2.228,1.749
		c-0.383,0-0.431-0.167-1.006-0.383c-0.383-0.144-0.694-0.383-0.742-0.479c-0.048-0.096-0.168-0.431-0.168-0.695
		s0.048-0.479,0.096-0.647c0.719-2.898,2.18-5.702,2.587-8.504c0.024-0.167,0.288-0.407,0.455-0.455
		c0.216-0.072,0.407-0.072,0.575-0.072c0.239,0,0.431,0.024,0.671,0.024c0.167,0,0.575,0.239,0.575,0.551
		C19.311,64.201,19.215,64.393,19.12,64.537z"/>
	<path style="fill:#C7A77B;" d="M38.876,65.16c0.12,0,0.479,0.024,0.671,0.312c0.048,0.072,0.048,0.096,0.048,0.144
		c0,0.096-0.048,0.192-0.096,0.264c-1.054,1.438-2.324,3.234-2.779,5.079c-0.168,0.671-0.335,1.39-0.335,2.132
		c0,0.623,0.144,1.246,0.503,1.796c0.024,0.048,0.048,0.096,0.048,0.144s-0.096,0.288-0.503,0.335
		c-0.144,0.024-0.312,0.096-0.455,0.096c-0.359,0-0.887-0.168-1.03-0.479c-0.312-0.695-0.407-1.39-0.407-2.061
		c0-0.719,0.096-1.126,0.096-1.198c0-0.096,0-0.12-0.096-0.12s-0.312,0.167-0.575,0.431l-1.293,1.198
		c-1.246,1.174-2.012,1.509-2.851,1.797c-0.144,0.048-0.288,0.096-0.383,0.096c-0.264,0-0.551-0.167-1.677-1.078
		c-0.12-0.096-0.527-0.503-0.527-1.414c0-0.791,0.264-1.796,1.438-3.545c1.413-2.108,2.731-3.066,3.45-3.593
		c1.174-0.862,2.419-1.485,3.833-1.893c0.167-0.048,0.359-0.072,0.527-0.072c0.551,0,1.03,0.263,1.461,0.695
		c0.12,0.12,0.312,0.335,0.359,0.479C38.397,64.944,38.613,65.16,38.876,65.16z M36.026,65.255c-2.252,1.198-4.025,2.516-5.39,4.168
		c-1.006,1.222-1.797,2.635-1.797,3.33c0,0.288,0.096,0.646,0.527,0.646c0.192,0,0.743-0.263,1.174-0.67
		c2.228-2.084,4.744-3.689,5.965-5.965c0.167-0.312,0.431-0.646,0.695-0.91c0.072-0.072,0.12-0.216,0.12-0.359
		c0-0.168-0.144-0.479-0.551-0.479C36.697,65.016,36.337,65.088,36.026,65.255z"/>
	<path style="fill:#C7A77B;" d="M41.968,64.345c0.191-0.288,0.167-0.335,0.383-0.527c0.191-0.168,0.479-0.24,0.838-0.24
		c0.551,0,0.862,0.144,0.958,0.359c0.048,0.12,0.12,0.312,0.12,0.431c0,0.264-0.12,0.695-0.527,1.126
		c-0.263,0.288-0.934,1.054-1.533,2.156c-0.335,0.623-0.91,1.772-1.701,3.737c-0.167,0.431-0.479,1.605-0.479,1.677
		c0,0.096,0,0.239,0.072,0.239c0.144,0,0.24-0.072,0.407-0.312c3.234-4.6,5.007-5.558,5.534-6.684
		c0.432-0.91,0.527-0.982,0.839-0.982c0.359,0,0.479,0.216,0.862,0.24c0.264,0.024,0.479,0.359,0.479,0.647
		c0,0.096-0.12,0.431-0.24,0.623c-0.862,1.414-1.317,2.324-1.677,3.546c-0.144,0.479-0.288,1.677-0.288,2.156
		c0,0.431,0.144,0.791,0.192,1.03c0.072,0.431,0.671,0.743,0.838,0.862c0.192,0.144,0.359,0.312,0.359,0.551
		c0,0.167-0.167,0.575-0.623,0.575c-0.191,0-0.958-0.072-1.246-0.335c-0.335-0.312-0.623-0.407-0.934-0.838
		c-0.288-0.383-0.407-0.886-0.407-1.485c0-1.413,0.215-1.821,0.215-1.893c0-0.048-0.024-0.096-0.072-0.096s-0.072,0-0.144,0.096
		c-0.982,1.294-1.629,2.108-2.204,2.923c-0.503,0.719-0.695,0.695-1.03,1.054c-0.191,0.215-0.671,0.263-0.886,0.263
		c-0.288,0-1.414-0.719-1.725-1.102c-0.096-0.12-0.167-0.431-0.167-0.694c0-0.743,0.215-0.911,0.288-1.438
		c0.096-0.695,0.767-2.324,1.174-3.258C40.363,67.1,40.914,65.95,41.968,64.345z"/>
	<path style="fill:#C7A77B;" d="M53.483,64.992c-0.24,0.503-0.551,1.413-0.551,1.485c0,0.048,0.048,0.072,0.096,0.072
		c0.072,0,0.359-0.048,0.599-0.096c1.054-0.215,2.419-0.719,3.21-1.198c0.12-0.072,0.216-0.12,0.264-0.12
		c0.407,0,1.174,0.335,1.174,0.623c0,0.311-0.263,0.694-0.791,0.91c-0.647,0.264-0.647,0.335-1.078,0.503
		c-1.174,0.455-3.21,0.911-3.713,1.078c-0.216,0.072-0.359,0.192-0.456,0.359c-0.191,0.335-0.311,0.791-0.407,1.15
		c-0.072,0.264-0.215,0.503-0.263,0.767c-0.144,0.791-0.958,2.827-1.102,4.025c-0.024,0.215-0.264,0.838-0.599,1.006
		c-0.096,0.048-0.263,0.072-0.359,0.072c-0.287,0-0.67-0.12-0.862-0.263c-0.191-0.144-0.264-0.359-0.264-0.575
		c0-0.191,0.024-0.503,0.096-0.719c0.599-1.772,1.03-3.857,1.796-5.702c0.024-0.072,0.048-0.12,0.048-0.167s-0.024-0.096-0.12-0.144
		c-0.862-0.432-1.006-1.054-1.557-1.509c-0.12-0.096-0.12-0.216-0.12-0.288c0-0.168,0.096-0.216,0.288-0.312
		c0.144-0.072,0.263-0.12,0.479-0.12c0.527,0,1.126,0.383,1.557,0.383c0.215,0,0.359-0.12,0.407-0.335
		c0.072-0.264,0.191-0.623,0.383-1.126c0.575-1.461,1.222-3.33,2.036-5.079c0.144-0.312,0.168-0.312,0.264-0.312
		c0.383,0,0.431-0.12,0.671-0.12c0.215,0,0.623,0.072,0.91,0.191c0.12,0.048,0.216,0.096,0.216,0.167c0,0.048,0,0.12-0.024,0.264
		C55.4,61.734,54.25,63.363,53.483,64.992z"/>
	<path style="fill:#C7A77B;" d="M65.649,64.992c-0.24,0.503-0.551,1.413-0.551,1.485c0,0.048,0.048,0.072,0.096,0.072
		c0.072,0,0.359-0.048,0.599-0.096c1.054-0.215,2.419-0.719,3.21-1.198c0.12-0.072,0.216-0.12,0.264-0.12
		c0.407,0,1.174,0.335,1.174,0.623c0,0.311-0.264,0.694-0.791,0.91c-0.647,0.264-0.647,0.335-1.078,0.503
		c-1.174,0.455-3.21,0.911-3.713,1.078c-0.216,0.072-0.359,0.192-0.456,0.359c-0.191,0.335-0.311,0.791-0.407,1.15
		c-0.072,0.264-0.215,0.503-0.263,0.767c-0.144,0.791-0.958,2.827-1.102,4.025c-0.024,0.215-0.264,0.838-0.599,1.006
		c-0.096,0.048-0.263,0.072-0.359,0.072c-0.287,0-0.67-0.12-0.862-0.263c-0.191-0.144-0.264-0.359-0.264-0.575
		c0-0.191,0.024-0.503,0.096-0.719c0.599-1.772,1.03-3.857,1.796-5.702c0.024-0.072,0.048-0.12,0.048-0.167s-0.024-0.096-0.12-0.144
		c-0.862-0.432-1.006-1.054-1.557-1.509c-0.12-0.096-0.12-0.216-0.12-0.288c0-0.168,0.096-0.216,0.287-0.312
		c0.144-0.072,0.264-0.12,0.479-0.12c0.527,0,1.126,0.383,1.557,0.383c0.215,0,0.359-0.12,0.407-0.335
		c0.072-0.264,0.191-0.623,0.383-1.126c0.575-1.461,1.222-3.33,2.036-5.079c0.144-0.312,0.168-0.312,0.264-0.312
		c0.383,0,0.431-0.12,0.671-0.12c0.215,0,0.623,0.072,0.91,0.191c0.12,0.048,0.216,0.096,0.216,0.167c0,0.048,0,0.12-0.024,0.264
		C67.565,61.734,66.416,63.363,65.649,64.992z"/>
	<path style="fill:#C7A77B;" d="M75.476,65.423c0.958,0,1.509-0.072,2.06-0.072c0.767,0,1.485,0.239,1.485,0.623
		c0,0.312-0.599,0.383-0.671,0.503c-0.048,0.096-0.096,0.12-0.264,0.144c-0.479,0.072-1.174,0.312-1.796,0.407
		C75.811,67.1,75.523,67.1,75.355,67.1c-0.191,0-0.239,0.024-0.287,0.192c-0.623,2.563-1.485,4.791-3.019,6.42
		c-0.671,0.719-1.318,1.414-2.156,1.414c-0.215,0-0.431-0.048-0.575-0.12c-0.911-0.431-1.581-0.958-1.797-1.509
		c-0.264-0.671-0.359-1.39-0.359-1.988c0-1.965,0.982-3.689,2.084-5.342c0.335-0.503,0.335-0.383,0.575-0.719
		c0.767-1.078,1.773-2.204,2.827-2.204c0.383,0,0.863,0.096,1.27,0.455c0.191,0.168,0.263,0.216,0.335,0.407
		C74.469,64.705,74.781,65.423,75.476,65.423z M72.84,65.327c-0.072-0.239-0.144-0.407-0.24-0.407s-0.239,0.096-0.359,0.24
		c-0.096,0.12-0.335,0.24-0.455,0.407c-0.743,0.934-2.995,3.905-2.995,6.708c0,0.072,0,0.167,0.072,0.335
		c0.072,0.192,0.359,0.647,0.575,0.791c0.072,0.048,0.144,0.048,0.215,0.048c0.24,0,0.359-0.144,0.456-0.192
		c0.167-0.072,0.215-0.144,0.407-0.431c1.389-2.084,2.683-3.953,2.683-6.373c0-0.096,0-0.383-0.024-0.503
		c-0.024-0.167-0.072-0.191-0.144-0.264C72.912,65.567,72.864,65.423,72.84,65.327z"/>
	<path style="fill:#C7A77B;" d="M90.228,59.075c-1.27,2.06-2.971,4.384-3.666,6.013c-1.03,2.419-2.587,4.767-2.587,7.498
		c0,0.527,0.024,0.863,0.408,0.863c0.263,0,0.67-0.288,0.838-0.503c1.389-1.772,1.845-2.922,2.372-4.815
		c0.072-0.264,0.144-0.503,0.144-0.623c0-0.144-0.096-1.222-0.479-1.509c-0.096-0.072-0.12-0.288-0.12-0.431
		c0-0.407,0.359-1.078,0.767-1.078c0.312,0,0.599,0.312,0.838,0.599c0.671,0.791,0.695,0.838,1.246,0.838
		c0.288,0,1.438-0.072,3.713-0.695c0.264-0.072,0.503-0.144,0.551-0.144c0.096,0,0.12,0.048,0.288,0.048s0.359,0.048,0.479,0.144
		c0.096,0.072,0.288,0.335,0.288,0.527c0,0.096-0.096,0.383-0.215,0.407c-1.821,0.263-3.115,1.246-4.863,1.246
		c-0.168,0-0.503-0.144-0.695-0.144c-0.072,0-0.096,0.12-0.096,0.215c0,0.144,0.048,0.335,0.048,0.503
		c0,0.288-0.072,0.288-0.168,0.911c-0.167,1.03-0.67,1.749-1.03,2.563c-0.335,0.743-0.407,0.862-0.671,1.222
		c-0.791,1.078-1.773,2.396-3.138,2.396c-0.216,0-0.359,0-0.647-0.096c-0.288-0.096-1.341-0.575-1.509-1.246
		c-0.096-0.408-0.167-0.815-0.167-1.198c0-0.934,0.215-1.82,0.503-2.659c0.072-0.215,0.575-1.701,0.743-2.084
		c1.605-3.689,3.45-6.708,5.51-10.301c0.359-0.623,0.767-1.006,1.438-1.006c0.192,0,0.431,0.048,0.695,0.144
		c0.359,0.144,0.455,0.407,0.455,0.767C91.498,58.068,90.563,58.524,90.228,59.075z"/>
	<path style="fill:#C7A77B;" d="M95.26,75.437c-0.288,0-0.527-0.024-0.911-0.168c-0.527-0.191-1.365-0.575-1.533-0.67
		c-0.479-0.264-0.934-0.863-1.198-1.653c-0.167-0.479-0.288-1.389-0.288-1.845c0-0.215,0.024-0.455,0.12-0.791
		c0.67-2.443,2.3-4.551,4.12-6.492c0.407-0.432,1.39-1.078,2.563-1.078c0.647,0,0.982,0.096,1.461,0.263
		c0.264,0.096,0.767,0.527,0.767,1.485c0,0.623-0.264,1.15-0.551,1.725c-0.239,0.479-0.431,0.743-0.767,1.126
		c-1.653,1.869-3.521,3.953-5.558,5.079c-0.12,0.072-0.144,0.12-0.144,0.191c0,0.383,0.359,0.887,0.575,1.006
		c0.264,0.144,0.503,0.192,0.743,0.192c0.407,0,0.767-0.096,1.845-0.671c1.653-0.886,2.659-2.18,4.096-3.09
		c0.264-0.168,0.384-0.168,0.479-0.168c0.144,0,0.479,0.24,0.479,0.479c0,0.215-0.024,0.239-0.024,0.311c0,0.096,0,0.24-0.12,0.335
		c-1.15,0.982-1.653,2.18-5.294,4.192C95.691,75.437,95.571,75.437,95.26,75.437z M98.351,64.489c0-0.191,0-0.288-0.144-0.288
		c-0.144,0-0.287,0.072-0.503,0.216c-0.264,0.168-0.24,0.096-0.479,0.312c-1.557,1.39-3.234,3.354-3.761,5.486
		c0,0.096,0.024,0.12,0.048,0.12c0.048,0,0.096-0.024,0.167-0.072c1.414-1.078,2.587-2.396,3.666-3.689
		c0.359-0.431,0.264-0.503,0.575-0.982C98.159,65.231,98.351,64.92,98.351,64.489z"/>
	<path style="fill:#C7A77B;" d="M111.114,64.992c-0.24,0.503-0.551,1.413-0.551,1.485c0,0.048,0.048,0.072,0.096,0.072
		c0.072,0,0.359-0.048,0.599-0.096c1.054-0.215,2.419-0.719,3.21-1.198c0.12-0.072,0.216-0.12,0.264-0.12
		c0.407,0,1.174,0.335,1.174,0.623c0,0.311-0.263,0.694-0.791,0.91c-0.647,0.264-0.647,0.335-1.078,0.503
		c-1.174,0.455-3.21,0.911-3.713,1.078c-0.216,0.072-0.359,0.192-0.456,0.359c-0.191,0.335-0.311,0.791-0.407,1.15
		c-0.072,0.264-0.215,0.503-0.263,0.767c-0.144,0.791-0.958,2.827-1.102,4.025c-0.024,0.215-0.264,0.838-0.599,1.006
		c-0.096,0.048-0.263,0.072-0.359,0.072c-0.287,0-0.67-0.12-0.862-0.263c-0.191-0.144-0.264-0.359-0.264-0.575
		c0-0.191,0.024-0.503,0.096-0.719c0.599-1.772,1.03-3.857,1.796-5.702c0.024-0.072,0.048-0.12,0.048-0.167s-0.024-0.096-0.12-0.144
		c-0.862-0.432-1.006-1.054-1.557-1.509c-0.12-0.096-0.12-0.216-0.12-0.288c0-0.168,0.096-0.216,0.288-0.312
		c0.144-0.072,0.263-0.12,0.479-0.12c0.527,0,1.126,0.383,1.557,0.383c0.215,0,0.359-0.12,0.407-0.335
		c0.072-0.264,0.191-0.623,0.383-1.126c0.575-1.461,1.222-3.33,2.036-5.079c0.144-0.312,0.168-0.312,0.264-0.312
		c0.383,0,0.431-0.12,0.671-0.12c0.215,0,0.623,0.072,0.91,0.191c0.12,0.048,0.216,0.096,0.216,0.167c0,0.048,0,0.12-0.024,0.264
		C113.031,61.734,111.881,63.363,111.114,64.992z"/>
	<path style="fill:#C7A77B;" d="M119.99,75.94c-0.144,0-0.311-0.024-0.694-0.167c-0.911-0.335-1.294-1.102-1.294-2.276
		c0-0.743,0.144-1.629,0.455-2.683c0.312-1.054,0.599-1.773,0.887-2.468c0.072-0.167,0.096-0.239,0.096-0.287
		c0-0.024-0.024-0.048-0.048-0.048c-0.048,0-0.144,0.072-0.312,0.264c-1.629,1.869-3.282,4.647-4.695,6.301
		c-0.12,0.144-0.144,0.167-0.264,0.239c-0.239,0.144-0.575,0.312-0.91,0.312c-0.12,0-0.862-0.288-1.246-0.671
		c-0.072-0.072-0.096-0.191-0.096-0.263c0-0.264,0.12-0.24,0.216-0.647c0.743-3.186,2.491-6.636,4.528-10.685
		c1.006-2.012,2.348-4.216,3.521-6.564c0.144-0.288,0.383-0.335,0.623-0.335c0.24,0,0.384,0.048,0.503,0.048
		c0.215,0,0.479,0.168,0.671,0.359c0.167,0.167,0.215,0.288,0.215,0.599c0,0.623-0.503,1.006-1.126,1.772
		c-0.215,0.264-0.264,0.383-0.455,0.647c-2.156,2.971-4.049,7.857-5.845,11.667c-0.192,0.407-0.216,0.456-0.216,0.479
		s0,0.048,0.048,0.048c0.024,0,0.048-0.024,0.168-0.192c1.94-2.707,3.689-4.767,5.438-6.66c0.335-0.359,0.455-0.479,0.671-0.551
		c0.215-0.072,0.431-0.12,0.551-0.12c0.24,0,0.695,0.096,0.886,0.168c0.168,0.072,0.359,0.287,0.359,0.455
		c0,0.695-0.287,1.174-0.718,1.917c-0.335,0.575-0.432,1.006-0.623,1.461c-0.647,1.533-1.246,3.498-1.246,5.126
		c0,1.15,0.239,1.39,0.599,1.581c0.144,0.072,0.407,0.096,0.599,0.144c0.096,0.024,0.167,0.12,0.167,0.192
		c0,0.096-0.072,0.191-0.12,0.312c-0.072,0.167-0.288,0.287-0.455,0.335C120.541,75.82,120.301,75.94,119.99,75.94z"/>
	<path style="fill:#C7A77B;" d="M126.061,75.437c-0.288,0-0.527-0.024-0.911-0.168c-0.527-0.191-1.365-0.575-1.533-0.67
		c-0.479-0.264-0.934-0.863-1.198-1.653c-0.167-0.479-0.288-1.389-0.288-1.845c0-0.215,0.024-0.455,0.12-0.791
		c0.67-2.443,2.3-4.551,4.12-6.492c0.407-0.432,1.39-1.078,2.563-1.078c0.647,0,0.982,0.096,1.461,0.263
		c0.264,0.096,0.767,0.527,0.767,1.485c0,0.623-0.264,1.15-0.551,1.725c-0.239,0.479-0.431,0.743-0.767,1.126
		c-1.653,1.869-3.521,3.953-5.558,5.079c-0.12,0.072-0.144,0.12-0.144,0.191c0,0.383,0.359,0.887,0.575,1.006
		c0.264,0.144,0.503,0.192,0.743,0.192c0.407,0,0.767-0.096,1.845-0.671c1.653-0.886,2.659-2.18,4.097-3.09
		c0.263-0.168,0.383-0.168,0.479-0.168c0.144,0,0.479,0.24,0.479,0.479c0,0.215-0.024,0.239-0.024,0.311c0,0.096,0,0.24-0.12,0.335
		c-1.15,0.982-1.653,2.18-5.294,4.192C126.492,75.437,126.372,75.437,126.061,75.437z M129.151,64.489c0-0.191,0-0.288-0.144-0.288
		c-0.144,0-0.288,0.072-0.503,0.216c-0.264,0.168-0.24,0.096-0.479,0.312c-1.557,1.39-3.234,3.354-3.761,5.486
		c0,0.096,0.024,0.12,0.048,0.12c0.048,0,0.096-0.024,0.167-0.072c1.414-1.078,2.587-2.396,3.666-3.689
		c0.359-0.431,0.264-0.503,0.575-0.982C128.959,65.231,129.151,64.92,129.151,64.489z"/>
	<path style="fill:#C7A77B;" d="M144.957,70.55c0.335,0,0.791,0.551,0.791,0.623c0,0.096-0.096,0.144-0.096,0.239
		c0,0.144-0.024,0.216-0.191,0.288c-0.743,0.312-1.605,0.982-2.635,1.821c-1.341,1.078-2.54,1.772-3.545,1.772
		c-1.318,0-2.3-0.934-2.419-1.174c-0.192-0.383-0.288-0.743-0.288-1.126c0-0.575,0.215-1.198,0.383-1.796
		c0.048-0.168,0.12-0.599,0.287-0.935c1.246-2.491,2.971-5.414,4.983-6.42c0.144-0.072,0.191-0.072,0.383-0.072
		c0.815,0,1.869,0.383,2.492,1.006c0.096,0.096,0.096,0.144,0.096,0.335c0,0.264,0.048,0.288,0.048,0.359
		c0,0.048,0,0.072-0.024,0.167c-0.072,0.288-0.814,1.414-0.814,2.252c0,0.192-0.144,0.359-0.455,0.359
		c-0.167,0-0.335-0.048-0.479-0.167l-0.623-0.456c-0.191-0.144-0.264-0.335-0.264-0.527c0-0.479,0.527-1.054,0.527-1.438
		c0-0.096-0.072-0.239-0.192-0.239c-0.144,0-0.191,0.048-0.383,0.239c-1.006,1.006-2.108,2.42-2.922,3.857
		c-0.839,1.485-1.39,3.066-1.39,3.666c0,0.312,0.192,0.503,0.407,0.503c1.102,0,2.228-0.623,3.402-1.509
		C143.088,71.388,144.286,70.55,144.957,70.55z"/>
	<path style="fill:#C7A77B;" d="M153.538,65.423c0.958,0,1.509-0.072,2.06-0.072c0.767,0,1.485,0.239,1.485,0.623
		c0,0.312-0.599,0.383-0.671,0.503c-0.048,0.096-0.096,0.12-0.263,0.144c-0.479,0.072-1.174,0.312-1.797,0.407
		c-0.479,0.072-0.767,0.072-0.935,0.072c-0.191,0-0.239,0.024-0.287,0.192c-0.623,2.563-1.485,4.791-3.019,6.42
		c-0.671,0.719-1.318,1.414-2.156,1.414c-0.215,0-0.431-0.048-0.575-0.12c-0.911-0.431-1.582-0.958-1.797-1.509
		c-0.264-0.671-0.359-1.39-0.359-1.988c0-1.965,0.982-3.689,2.084-5.342c0.335-0.503,0.335-0.383,0.575-0.719
		c0.767-1.078,1.773-2.204,2.827-2.204c0.383,0,0.863,0.096,1.27,0.455c0.191,0.168,0.263,0.216,0.335,0.407
		C152.531,64.705,152.843,65.423,153.538,65.423z M150.902,65.327c-0.072-0.239-0.144-0.407-0.24-0.407s-0.239,0.096-0.359,0.24
		c-0.096,0.12-0.335,0.24-0.455,0.407c-0.743,0.934-2.995,3.905-2.995,6.708c0,0.072,0,0.167,0.072,0.335
		c0.072,0.192,0.359,0.647,0.575,0.791c0.072,0.048,0.144,0.048,0.216,0.048c0.239,0,0.359-0.144,0.455-0.192
		c0.167-0.072,0.215-0.144,0.407-0.431c1.389-2.084,2.683-3.953,2.683-6.373c0-0.096,0-0.383-0.024-0.503
		c-0.024-0.167-0.072-0.191-0.144-0.264C150.974,65.567,150.926,65.423,150.902,65.327z"/>
	<path style="fill:#C7A77B;" d="M159.632,64.513c0,0.12-0.048,0.503-0.288,0.839c-1.749,2.443-3.306,5.126-4.049,7.953
		c0,0.12,0.12,0.264,0.216,0.264c0.072,0,0.167-0.048,0.264-0.096c2.587-1.294,4.767-4.001,5.821-6.636
		c0.096-0.239,0.239-0.431,0.503-0.623c0.312-0.24,0.575-0.335,0.934-0.335c0.408,0,0.791,0.167,1.102,0.479
		c0.096,0.096,0.096,0.12,0.096,0.168c0,0.096-0.024,0.215-0.072,0.359c-0.431,1.174-1.461,2.108-2.06,3.282
		c-0.791,1.533-1.03,2.443-1.03,2.995c0,0.12,0.096,0.383,0.216,0.383c0.359,0,0.958-0.288,1.39-0.791
		c1.653-1.917,3.977-3.258,4.863-5.702c0.096-0.264,0.407-0.886,1.15-0.886c0.479,0,0.359,0.144,0.719,0.191
		c0.551,0.072,0.599,0.12,0.791,0.479c0.072,0.12,0.096,0.24,0.096,0.335c0,0.455-0.551,0.503-0.862,1.03
		c-1.174,1.964-1.677,3.186-1.677,4.384c0,0.767,0.215,1.581,0.767,2.396c0.096,0.144,0.167,0.191,0.215,0.215
		c0.144,0.072,0.335,0.288,0.335,0.479c0,0.192-0.215,0.383-0.575,0.383s-0.575-0.12-0.911-0.191
		c-0.263-0.048-0.623-0.359-1.126-1.366c-0.263-0.527-0.599-1.437-0.599-2.132c0-0.072-0.024-0.144-0.096-0.144
		c-0.048,0-0.096,0.024-0.192,0.096c-1.222,0.91-2.252,2.755-4.145,2.755c-0.431,0-0.862-0.096-1.222-0.264
		c-1.006-0.479-1.126-0.814-1.126-1.174c0-0.312,0-0.359-0.072-0.359c-0.048,0-0.096,0.048-0.167,0.12
		c-0.695,0.695-1.677,1.27-2.492,1.677c-0.144,0.072-0.288,0.144-0.383,0.144c-0.695,0-1.438-0.263-2.012-0.695
		c-0.096-0.072-0.144-0.12-0.192-0.311c-0.096-0.407-0.144-0.791-0.144-1.15c0-2.228,1.581-4.001,2.443-5.917
		c0.647-1.414,0.887-1.533,1.246-2.491c0.096-0.264,0.599-0.791,1.461-0.791c0.264,0,0.503,0.048,0.743,0.191
		C159.632,64.129,159.632,64.25,159.632,64.513z"/>
	<path style="fill:#C7A77B;" d="M175.598,64.513c0,0.12-0.048,0.503-0.288,0.839c-1.749,2.443-3.306,5.126-4.049,7.953
		c0,0.12,0.12,0.264,0.216,0.264c0.072,0,0.167-0.048,0.263-0.096c2.587-1.294,4.768-4.001,5.822-6.636
		c0.096-0.239,0.239-0.431,0.503-0.623c0.312-0.24,0.575-0.335,0.934-0.335c0.407,0,0.791,0.167,1.102,0.479
		c0.096,0.096,0.096,0.12,0.096,0.168c0,0.096-0.024,0.215-0.072,0.359c-0.431,1.174-1.461,2.108-2.06,3.282
		c-0.791,1.533-1.03,2.443-1.03,2.995c0,0.12,0.096,0.383,0.216,0.383c0.359,0,0.958-0.288,1.389-0.791
		c1.653-1.917,3.977-3.258,4.863-5.702c0.096-0.264,0.407-0.886,1.15-0.886c0.479,0,0.359,0.144,0.719,0.191
		c0.551,0.072,0.599,0.12,0.791,0.479c0.072,0.12,0.096,0.24,0.096,0.335c0,0.455-0.551,0.503-0.862,1.03
		c-1.174,1.964-1.677,3.186-1.677,4.384c0,0.767,0.215,1.581,0.767,2.396c0.096,0.144,0.167,0.191,0.215,0.215
		c0.144,0.072,0.335,0.288,0.335,0.479c0,0.192-0.215,0.383-0.575,0.383s-0.575-0.12-0.911-0.191
		c-0.263-0.048-0.623-0.359-1.126-1.366c-0.263-0.527-0.599-1.437-0.599-2.132c0-0.072-0.024-0.144-0.096-0.144
		c-0.048,0-0.096,0.024-0.192,0.096c-1.222,0.91-2.252,2.755-4.145,2.755c-0.431,0-0.862-0.096-1.222-0.264
		c-1.006-0.479-1.126-0.814-1.126-1.174c0-0.312,0-0.359-0.072-0.359c-0.048,0-0.096,0.048-0.168,0.12
		c-0.694,0.695-1.677,1.27-2.491,1.677c-0.144,0.072-0.288,0.144-0.383,0.144c-0.695,0-1.438-0.263-2.012-0.695
		c-0.096-0.072-0.144-0.12-0.192-0.311c-0.096-0.407-0.144-0.791-0.144-1.15c0-2.228,1.581-4.001,2.443-5.917
		c0.647-1.414,0.887-1.533,1.246-2.491c0.096-0.264,0.599-0.791,1.461-0.791c0.264,0,0.503,0.048,0.743,0.191
		C175.598,64.129,175.598,64.25,175.598,64.513z"/>
	<path style="fill:#C7A77B;" d="M194.238,65.423c0.958,0,1.509-0.072,2.06-0.072c0.767,0,1.485,0.239,1.485,0.623
		c0,0.312-0.599,0.383-0.671,0.503c-0.048,0.096-0.096,0.12-0.264,0.144c-0.479,0.072-1.174,0.312-1.796,0.407
		c-0.479,0.072-0.767,0.072-0.935,0.072c-0.191,0-0.239,0.024-0.287,0.192c-0.623,2.563-1.485,4.791-3.019,6.42
		c-0.671,0.719-1.318,1.414-2.156,1.414c-0.215,0-0.431-0.048-0.575-0.12c-0.911-0.431-1.581-0.958-1.797-1.509
		c-0.264-0.671-0.359-1.39-0.359-1.988c0-1.965,0.982-3.689,2.084-5.342c0.335-0.503,0.335-0.383,0.575-0.719
		c0.767-1.078,1.773-2.204,2.827-2.204c0.383,0,0.863,0.096,1.27,0.455c0.191,0.168,0.263,0.216,0.335,0.407
		C193.232,64.705,193.543,65.423,194.238,65.423z M191.603,65.327c-0.072-0.239-0.144-0.407-0.24-0.407s-0.239,0.096-0.359,0.24
		c-0.096,0.12-0.335,0.24-0.455,0.407c-0.743,0.934-2.995,3.905-2.995,6.708c0,0.072,0,0.167,0.072,0.335
		c0.072,0.192,0.359,0.647,0.575,0.791c0.072,0.048,0.144,0.048,0.215,0.048c0.24,0,0.359-0.144,0.456-0.192
		c0.167-0.072,0.215-0.144,0.407-0.431c1.389-2.084,2.683-3.953,2.683-6.373c0-0.096,0-0.383-0.024-0.503
		c-0.024-0.167-0.072-0.191-0.144-0.264C191.675,65.567,191.627,65.423,191.603,65.327z"/>
	<path style="fill:#C7A77B;" d="M198.104,64.345c0.191-0.288,0.167-0.335,0.383-0.527c0.191-0.168,0.479-0.24,0.838-0.24
		c0.551,0,0.862,0.144,0.958,0.359c0.048,0.12,0.12,0.312,0.12,0.431c0,0.264-0.12,0.695-0.527,1.126
		c-0.263,0.288-0.934,1.054-1.533,2.156c-0.335,0.623-0.91,1.772-1.701,3.737c-0.167,0.431-0.479,1.605-0.479,1.677
		c0,0.096,0,0.239,0.072,0.239c0.144,0,0.24-0.072,0.407-0.312c3.234-4.6,5.007-5.558,5.534-6.684
		c0.432-0.91,0.527-0.982,0.839-0.982c0.359,0,0.479,0.216,0.862,0.24c0.264,0.024,0.479,0.359,0.479,0.647
		c0,0.096-0.12,0.431-0.24,0.623c-0.862,1.414-1.317,2.324-1.677,3.546c-0.144,0.479-0.288,1.677-0.288,2.156
		c0,0.431,0.144,0.791,0.192,1.03c0.072,0.431,0.671,0.743,0.838,0.862c0.192,0.144,0.359,0.312,0.359,0.551
		c0,0.167-0.167,0.575-0.623,0.575c-0.191,0-0.958-0.072-1.246-0.335c-0.335-0.312-0.623-0.407-0.934-0.838
		c-0.288-0.383-0.407-0.886-0.407-1.485c0-1.413,0.215-1.821,0.215-1.893c0-0.048-0.024-0.096-0.072-0.096s-0.072,0-0.144,0.096
		c-0.982,1.294-1.629,2.108-2.204,2.923c-0.503,0.719-0.695,0.695-1.03,1.054c-0.191,0.215-0.671,0.263-0.886,0.263
		c-0.288,0-1.414-0.719-1.725-1.102c-0.096-0.12-0.167-0.431-0.167-0.694c0-0.743,0.215-0.911,0.288-1.438
		c0.096-0.695,0.767-2.324,1.174-3.258C196.499,67.1,197.05,65.95,198.104,64.345z"/>
	<path style="fill:#C7A77B;" d="M8.679,98.329c0,0.072,0.024,0.096,0.096,0.096c1.198-1.03,2.611-2.013,4-2.827
		c0.407-0.239,0.455-0.239,0.575-0.239c0.215,0,0.479,0.096,0.623,0.239c0.096,0.096,0.144,0.24,0.144,0.359
		c0,0.048,0,0.264-0.192,0.407c-4.432,3.33-6.779,5.486-8.001,8.385c-0.814,1.964-1.701,4.025-1.988,4.552
		c-0.503,0.934-0.814,1.006-1.725,1.006c-0.455,0-1.126-0.24-1.246-0.695c-0.048-0.168-0.072-0.359-0.072-0.527
		c0-0.599,0.431-1.389,1.629-3.234c1.82-2.803,2.132-2.156,4.743-8.193V97.61c0-0.024-0.024-0.048-0.048-0.048s-0.048,0-0.072,0.024
		c-1.078,1.03-2.108,2.18-3.306,2.18c-0.24,0-0.503-0.048-0.719-0.144c-0.503-0.216-1.006-0.671-1.438-1.102
		c-0.12-0.12-0.167-0.192-0.167-0.695c0-1.03,0.455-1.701,0.695-2.228c0.287-0.623,1.509-2.18,2.348-3.114
		c2.515-2.827,4.479-3.042,4.576-3.042c1.03,0,1.964,0.359,2.467,1.03c0.216,0.288,0.264,0.551,0.264,0.838
		c0,0.359-0.024,0.623-0.192,0.934C9.182,96.7,8.679,98.065,8.679,98.329z M10.212,91.357c0-0.048-0.048-0.096-0.048-0.144
		c0-0.072,0-0.144-0.239-0.24c-0.12-0.048-0.264-0.072-0.407-0.072c-0.431,0-0.767,0.24-1.102,0.503
		c-0.479,0.383-0.671,0.407-1.006,0.719c-1.293,1.198-3.162,3.45-3.665,4.624c-0.144,0.335-0.288,0.767-0.288,0.911
		c0,0.096,0.191,0.191,0.288,0.191c0.12,0,0.287,0,0.479-0.12c2.156-1.366,4.456-4.001,5.917-6.205
		C10.188,91.453,10.212,91.405,10.212,91.357z"/>
	<path style="fill:#C7A77B;" d="M16.887,91.741c0,0.264-0.048,0.527-0.144,0.814c-0.072,0.288-0.096,0.335-0.096,0.383
		c0,0.072,0,0.096,0.072,0.096c0.024,0,0.12-0.024,0.312-0.191c1.317-1.006,2.467-1.677,3.33-1.964
		c0.072-0.024,0.216-0.048,0.288-0.048c0.671,0,1.342,0.191,1.749,0.67c0.096,0.096,0.167,0.264,0.167,0.408
		c0,0.743-0.646,1.054-0.838,1.054c-0.359,0-0.743-0.239-1.078-0.239c-0.072,0-0.167,0-0.383,0.096
		c-2.611,1.222-5.198,3.354-6.037,6.875c-0.167,0.719-0.431,1.03-0.599,1.15c-0.12,0.144-0.335,0.215-0.431,0.215
		c-0.383-0.024-0.551-0.311-0.719-0.503c-0.24-0.239-0.431-0.623-0.455-0.91c0-0.814,1.006-1.605,1.293-2.516
		c0.599-1.821,1.27-3.617,1.653-5.534c0.024-0.216,0.048-0.335,0.048-0.383c0-0.144-0.192-0.335-0.216-0.551
		c0-0.191,0.383-0.527,0.934-0.527c0.335,0,0.719,0.144,0.791,0.264C16.744,90.734,16.887,91.166,16.887,91.741z"/>
	<path style="fill:#C7A77B;" d="M28.525,91.19c0.958,0,1.509-0.072,2.06-0.072c0.767,0,1.485,0.239,1.485,0.623
		c0,0.312-0.599,0.383-0.671,0.503c-0.048,0.096-0.096,0.12-0.264,0.144c-0.479,0.072-1.174,0.312-1.796,0.407
		c-0.479,0.072-0.767,0.072-0.935,0.072c-0.191,0-0.239,0.024-0.287,0.192c-0.623,2.563-1.485,4.791-3.019,6.42
		c-0.671,0.719-1.318,1.414-2.156,1.414c-0.215,0-0.431-0.048-0.575-0.12c-0.911-0.431-1.581-0.958-1.797-1.509
		c-0.264-0.671-0.359-1.39-0.359-1.988c0-1.965,0.982-3.689,2.084-5.342c0.335-0.503,0.335-0.383,0.575-0.719
		c0.767-1.078,1.773-2.204,2.827-2.204c0.383,0,0.863,0.096,1.27,0.455c0.191,0.168,0.263,0.216,0.335,0.407
		C27.519,90.471,27.831,91.19,28.525,91.19z M25.89,91.094c-0.072-0.239-0.144-0.407-0.24-0.407s-0.239,0.096-0.359,0.24
		c-0.096,0.12-0.335,0.24-0.455,0.407c-0.743,0.934-2.995,3.905-2.995,6.708c0,0.072,0,0.167,0.072,0.335
		c0.072,0.192,0.359,0.647,0.575,0.791c0.072,0.048,0.144,0.048,0.215,0.048c0.24,0,0.359-0.144,0.456-0.192
		c0.167-0.072,0.215-0.144,0.407-0.431c1.389-2.084,2.683-3.953,2.683-6.373c0-0.096,0-0.383-0.024-0.503
		c-0.024-0.167-0.072-0.191-0.144-0.264C25.962,91.333,25.914,91.19,25.89,91.094z"/>
	<path style="fill:#C7A77B;" d="M33.804,90.687c0,0.192-0.12,0.456-0.479,0.695c-0.191,0.12-0.503,0.383-0.695,1.126
		c-0.551,2.132-1.557,4.48-1.796,6.229c-0.048,0.312-0.048,0.431-0.048,0.551c0,0.12,0.167,0.335,0.335,0.335
		c0.072,0,0.359-0.096,0.527-0.24c0.862-0.767,0.862-0.958,1.27-1.39c1.485-1.605,2.803-3.377,3.57-5.366
		c0.12-0.311,0.144-0.359,0.431-0.527c0.215-0.12,0.359-0.144,0.551-0.144c0.192,0,0.407,0.191,0.575,0.239
		c0.383,0.12,0.479,0.288,0.479,0.431c0,0.383-0.048,0.479-0.144,0.695c-0.814,1.749-1.461,3.521-1.749,5.414
		c-0.072,0.503-0.144,1.102-0.144,1.773c0,0.599,0.431,1.078,0.431,1.605c0,0.168-0.048,0.359-0.144,0.431
		c-0.072,0.048-0.191,0.072-0.335,0.072c-0.335,0-0.646-0.192-0.91-0.359c-0.455-0.288-0.455-0.096-0.599-0.456
		c-0.191-0.479-0.239-0.958-0.239-1.437c0-0.599,0.072-1.39,0.072-1.629c0-0.072-0.024-0.144-0.096-0.144
		c-0.096,0-0.24,0.167-0.335,0.288c-0.814,0.958-1.677,1.82-2.683,2.324c-0.192,0.096-0.216,0.096-0.312,0.096
		s-0.838-0.096-1.438-0.455c-0.431-0.264-0.67-0.503-0.719-0.743c-0.072-0.359-0.12-0.791-0.12-1.03
		c0-0.862,0.312-1.917,0.551-2.731c0.191-0.647,0.191-0.886,0.407-1.509c0.503-1.438,0.767-2.946,1.677-4.504
		c0.264-0.455,0.647-0.623,1.03-0.623c0.239,0,0.695,0.12,0.814,0.383C33.613,90.255,33.804,90.423,33.804,90.687z"/>
	<path style="fill:#C7A77B;" d="M41.942,90.112c0.191-0.288,0.167-0.335,0.383-0.527c0.191-0.168,0.479-0.24,0.838-0.24
		c0.551,0,0.862,0.144,0.958,0.359c0.048,0.12,0.12,0.312,0.12,0.431c0,0.264-0.12,0.695-0.527,1.126
		c-0.263,0.288-0.934,1.054-1.533,2.156c-0.335,0.623-0.91,1.772-1.701,3.737c-0.167,0.431-0.479,1.605-0.479,1.677
		c0,0.096,0,0.239,0.072,0.239c0.144,0,0.24-0.072,0.407-0.312c3.234-4.6,5.007-5.558,5.534-6.684
		c0.432-0.91,0.527-0.982,0.839-0.982c0.359,0,0.479,0.216,0.862,0.24c0.264,0.024,0.479,0.359,0.479,0.647
		c0,0.096-0.12,0.431-0.24,0.623c-0.862,1.414-1.317,2.324-1.677,3.546c-0.144,0.479-0.288,1.677-0.288,2.156
		c0,0.431,0.144,0.791,0.192,1.03c0.072,0.431,0.671,0.743,0.838,0.862c0.192,0.144,0.359,0.312,0.359,0.551
		c0,0.167-0.167,0.575-0.623,0.575c-0.191,0-0.958-0.072-1.246-0.335c-0.335-0.312-0.623-0.407-0.934-0.838
		c-0.288-0.383-0.407-0.886-0.407-1.485c0-1.413,0.215-1.821,0.215-1.893c0-0.048-0.024-0.096-0.072-0.096s-0.072,0-0.144,0.096
		c-0.982,1.294-1.629,2.108-2.204,2.923c-0.503,0.719-0.695,0.695-1.03,1.054c-0.191,0.215-0.671,0.263-0.886,0.263
		c-0.288,0-1.414-0.719-1.725-1.102c-0.096-0.12-0.167-0.431-0.167-0.694c0-0.743,0.215-0.911,0.288-1.438
		c0.096-0.695,0.767-2.324,1.174-3.258C40.337,92.867,40.888,91.717,41.942,90.112z"/>
	<path style="fill:#C7A77B;" d="M63.804,84.314c-0.216,0.312-0.288,0.623-0.551,1.03c-1.389,2.228-3.21,4.648-4,6.828l-0.383,1.054
		c-1.438,4.025-1.821,5.773-1.821,6.636c0,0.863,0.192,1.15,0.192,1.342c0,0.072-0.024,0.096-0.096,0.167
		c-0.335,0.335-0.264,0.503-0.863,0.503c-0.215,0-0.838-0.312-0.862-0.456c-0.096-0.551-0.144-1.054-0.144-1.557
		c0-1.246,0.263-2.276,0.623-3.545c0.192-0.671,0.743-1.677,0.743-1.725c0-0.024,0-0.048-0.048-0.048s-0.096,0.048-0.24,0.216
		c-1.916,2.228-3.785,4.576-6.133,5.989c-0.239,0.144-0.527,0.167-0.718,0.167c-0.479,0-1.605-0.575-1.701-0.743
		c-0.263-0.455-0.407-0.886-0.407-1.365c0-0.671,0.264-1.461,0.838-2.563c1.15-2.18,3.042-4.049,5.055-5.39
		c0.359-0.24,1.102-0.455,1.725-0.455c0.264,0,0.503,0.048,0.671,0.12c0.312,0.144,0.838,0.264,1.126,0.455
		c0.12,0,0.167,0,0.191-0.024c2.492-2.707,3.521-5.75,5.582-8.457c0.144-0.192,0.239-0.288,0.551-0.288s1.174,0.383,1.174,0.791
		C64.307,83.548,64.115,83.859,63.804,84.314z M55.467,91.812c-0.239,0-0.407,0.024-0.599,0.12c-2.324,1.174-4.6,3.713-5.582,6.348
		c-0.024,0.072-0.072,0.24-0.072,0.312c0,0.24,0.048,0.551,0.167,0.551c0.096,0,0.144-0.024,0.24-0.096
		c0.144-0.12,0.288-0.12,0.503-0.288c2.061-1.605,3.833-3.761,5.39-5.845c0.288-0.383,0.503-0.455,0.503-0.862
		C56.018,91.909,55.85,91.812,55.467,91.812z"/>
	<path style="fill:#C7A77B;" d="M70.697,90.303c-0.144,0.216-0.24,0.551-0.312,0.719c-0.958,2.276-1.629,4.624-2.42,6.996
		c-0.072,0.215-0.096,0.311-0.096,0.383c0,0.048,0.024,0.072,0.072,0.072c0.072,0,0.216-0.048,0.911-0.863
		c1.461-1.725,2.779-3.617,3.593-5.582c0.12-0.288,0.359-0.335,0.623-0.335c0.239,0,0.383,0.048,0.551,0.048
		c0.359,0,0.743,0.383,0.743,0.719c0,0.359-0.167,0.695-0.791,1.749c-0.335,0.575-0.383,0.934-0.503,1.198
		c-0.527,1.174-0.887,2.539-0.887,3.881c0,0.312,0.264,0.455,0.359,0.455c0.144,0,0.575-0.12,1.03-0.695
		c1.414-1.796,1.653-4.576,1.653-4.815c0-0.335,0.12-0.599,0.12-0.887c0-0.67-0.479-1.413-0.479-1.964
		c0-0.144,0.048-0.407,0.264-0.575c0.12-0.096,0.791-0.144,1.006-0.144c0.383,0,0.215,0.144,0.91,0.599
		c0.431,0.288,0.814,0.359,1.821,0.359c1.03,0,1.964-0.288,3.21-0.288c0.216,0,0.551,0,0.551,0.671c0,0.312-0.407,0.575-1.15,0.743
		c-1.509,0.359-1.964,0.623-2.683,0.623c-1.006,0-1.342-0.191-1.533-0.191c-0.168,0-0.216,0.12-0.216,0.312
		c0,0.215,0,0.719-0.024,0.982c-0.12,2.396-1.126,4.768-2.803,6.444c-0.24,0.24-0.503,0.407-1.054,0.407
		c-0.623,0-1.414-0.312-2.036-0.671c-0.288-0.167-0.671-0.551-0.671-1.102c0-0.432,0.072-0.647,0.072-0.935
		c0-0.12-0.024-0.191-0.072-0.191c-0.072,0-0.168,0.096-0.383,0.311c-0.719,0.719-1.198,1.749-2.228,1.749
		c-0.383,0-0.431-0.167-1.006-0.383c-0.384-0.144-0.695-0.383-0.743-0.479c-0.048-0.096-0.168-0.431-0.168-0.695
		s0.048-0.479,0.096-0.647c0.719-2.898,2.18-5.702,2.587-8.504c0.024-0.167,0.288-0.407,0.455-0.455
		c0.216-0.072,0.407-0.072,0.575-0.072c0.239,0,0.431,0.024,0.671,0.024c0.167,0,0.575,0.239,0.575,0.551
		C70.889,89.968,70.793,90.16,70.697,90.303z"/>
	<path style="fill:#C7A77B;" d="M83.442,101.204c-0.288,0-0.527-0.024-0.911-0.168c-0.527-0.191-1.365-0.575-1.533-0.67
		c-0.479-0.264-0.934-0.863-1.198-1.653c-0.167-0.479-0.288-1.389-0.288-1.845c0-0.215,0.024-0.455,0.12-0.791
		c0.67-2.443,2.3-4.551,4.12-6.492c0.407-0.432,1.39-1.078,2.563-1.078c0.647,0,0.982,0.096,1.461,0.263
		c0.264,0.096,0.767,0.527,0.767,1.485c0,0.623-0.264,1.15-0.551,1.725c-0.239,0.479-0.431,0.743-0.767,1.126
		c-1.653,1.869-3.521,3.953-5.558,5.079c-0.12,0.072-0.144,0.12-0.144,0.191c0,0.383,0.359,0.887,0.575,1.006
		c0.264,0.144,0.503,0.192,0.743,0.192c0.407,0,0.767-0.096,1.845-0.671c1.653-0.886,2.659-2.18,4.097-3.09
		c0.263-0.168,0.383-0.168,0.479-0.168c0.144,0,0.479,0.24,0.479,0.479c0,0.215-0.024,0.239-0.024,0.311c0,0.096,0,0.24-0.12,0.335
		c-1.15,0.982-1.653,2.18-5.294,4.192C83.874,101.204,83.753,101.204,83.442,101.204z M86.533,90.255c0-0.191,0-0.288-0.144-0.288
		c-0.144,0-0.288,0.072-0.503,0.216c-0.264,0.168-0.24,0.096-0.479,0.312c-1.557,1.39-3.234,3.354-3.761,5.486
		c0,0.096,0.024,0.12,0.048,0.12c0.048,0,0.096-0.024,0.167-0.072c1.414-1.078,2.587-2.396,3.666-3.689
		c0.359-0.431,0.264-0.503,0.575-0.982C86.341,90.998,86.533,90.687,86.533,90.255z"/>
	<path style="fill:#C7A77B;" d="M105.261,90.926c0.12,0,0.479,0.024,0.671,0.312c0.048,0.072,0.048,0.096,0.048,0.144
		c0,0.096-0.048,0.192-0.096,0.264c-1.054,1.438-2.324,3.234-2.779,5.079c-0.168,0.671-0.335,1.39-0.335,2.132
		c0,0.623,0.144,1.246,0.503,1.796c0.024,0.048,0.048,0.096,0.048,0.144s-0.096,0.288-0.503,0.335
		c-0.144,0.024-0.312,0.096-0.455,0.096c-0.359,0-0.887-0.168-1.03-0.479c-0.312-0.695-0.407-1.39-0.407-2.061
		c0-0.719,0.096-1.126,0.096-1.198c0-0.096,0-0.12-0.096-0.12s-0.312,0.167-0.575,0.431L99.057,99
		c-1.246,1.174-2.012,1.509-2.851,1.797c-0.144,0.048-0.288,0.096-0.383,0.096c-0.264,0-0.551-0.167-1.677-1.078
		c-0.12-0.096-0.527-0.503-0.527-1.414c0-0.791,0.264-1.796,1.438-3.545c1.413-2.108,2.731-3.066,3.45-3.593
		c1.174-0.862,2.419-1.485,3.833-1.893c0.167-0.048,0.359-0.072,0.527-0.072c0.551,0,1.03,0.263,1.461,0.695
		c0.12,0.12,0.312,0.335,0.359,0.479C104.782,90.71,104.998,90.926,105.261,90.926z M102.411,91.022
		c-2.252,1.198-4.025,2.516-5.39,4.168c-1.006,1.222-1.797,2.635-1.797,3.33c0,0.288,0.096,0.646,0.527,0.646
		c0.192,0,0.743-0.263,1.174-0.67c2.228-2.084,4.744-3.689,5.965-5.965c0.167-0.312,0.431-0.646,0.695-0.91
		c0.072-0.072,0.12-0.216,0.12-0.359c0-0.168-0.144-0.479-0.551-0.479C103.082,90.783,102.722,90.854,102.411,91.022z"/>
	<path style="fill:#C7A77B;" d="M104.822,99.479c-0.048-0.263-0.072-0.527-0.072-0.814c0-1.102,0.503-2.204,1.03-3.569
		c1.03-2.683,3.162-6.516,4.983-9.63c0.407-0.695,0.551-2.037,1.485-2.037c0.335,0,0.527-0.048,0.791-0.048
		c0.24,0,0.503,0.096,0.623,0.264c0.144,0.216,0.191,0.431,0.191,0.671c0,0.312-0.096,0.599-0.24,0.838
		c-2.18,3.521-4.695,6.732-6.108,10.469c-0.383,0.982-0.911,1.893-0.911,2.947c0,0.288,0.024,0.575,0.12,0.886
		c0.072,0.216,0.264,0.288,0.479,0.288c0.144,0,0.287-0.024,0.407-0.096c1.054-0.647,2.228-2.683,3.33-2.683
		c0.191,0,0.814,0.167,0.814,0.551c0,0.312-0.24,0.407-0.479,0.671c-1.222,1.317-2.204,3.138-4.048,3.138
		C107.05,101.323,105.062,100.796,104.822,99.479z"/>
	<path style="fill:#C7A77B;" d="M110.526,99.479c-0.048-0.263-0.072-0.527-0.072-0.814c0-1.102,0.503-2.204,1.03-3.569
		c1.03-2.683,3.162-6.516,4.983-9.63c0.407-0.695,0.551-2.037,1.485-2.037c0.335,0,0.527-0.048,0.791-0.048
		c0.24,0,0.503,0.096,0.623,0.264c0.144,0.216,0.191,0.431,0.191,0.671c0,0.312-0.096,0.599-0.24,0.838
		c-2.18,3.521-4.695,6.732-6.108,10.469c-0.383,0.982-0.911,1.893-0.911,2.947c0,0.288,0.024,0.575,0.12,0.886
		c0.072,0.216,0.264,0.288,0.479,0.288c0.144,0,0.287-0.024,0.407-0.096c1.054-0.647,2.228-2.683,3.33-2.683
		c0.191,0,0.814,0.167,0.814,0.551c0,0.312-0.24,0.407-0.479,0.671c-1.222,1.317-2.204,3.138-4.048,3.138
		C112.754,101.323,110.766,100.796,110.526,99.479z"/>
	<path style="fill:#C7A77B;" d="M129.759,91.333c0,0.91-0.359,1.557-0.695,1.988c-0.191,0.24-0.215,0.264-0.335,0.264
		c-0.264,0-0.671-0.167-0.838-0.312c-0.216-0.167-0.359-0.407-0.359-0.767c0-0.048,0.024-0.12,0.072-0.191
		c0.216-0.359,0.407-0.695,0.407-1.102c0-0.192-0.072-0.479-0.167-0.647s-0.335-0.335-0.527-0.335c-0.168,0-1.27,1.366-1.461,2.468
		c-0.024,0.167-0.048,0.335-0.048,0.623c0,0.144,0.12,1.222,0.167,1.533c0.216,1.797,0.767,4.48,0.767,5.462
		c0,0.191-0.096,0.335-0.191,0.431c-0.432,0.431-0.863,0.862-1.509,0.862c-0.216,0-0.479-0.048-0.599-0.096
		c-1.581-0.647-2.707-1.893-3.498-3.21c-0.072-0.12-0.144-0.287-0.144-0.359c0-0.359,0.359-0.886,0.863-0.886
		c0.479,0,0.695,0.048,0.91,0.335c0.551,0.743,0.838,1.653,1.557,2.3c0.24,0.215,0.359,0.264,0.479,0.264
		c0.144,0,0.24-0.096,0.24-0.192s0-0.144-0.12-0.743c-0.335-1.581-0.767-5.174-0.767-5.654c0-0.646,0.288-2.012,0.862-2.922
		c0.695-1.102,1.677-1.533,2.132-1.533c1.317,0,1.844,0.335,2.348,0.862C129.64,90.136,129.759,90.854,129.759,91.333z"/>
	<path style="fill:#C7A77B;" d="M136.354,101.707c-0.144,0-0.311-0.024-0.694-0.167c-0.911-0.335-1.294-1.102-1.294-2.276
		c0-0.743,0.144-1.629,0.455-2.683c0.312-1.054,0.599-1.773,0.887-2.468c0.072-0.167,0.096-0.239,0.096-0.287
		c0-0.024-0.024-0.048-0.048-0.048c-0.048,0-0.144,0.072-0.312,0.264c-1.629,1.869-3.282,4.647-4.695,6.301
		c-0.12,0.144-0.144,0.167-0.264,0.239c-0.239,0.144-0.575,0.312-0.91,0.312c-0.12,0-0.862-0.288-1.246-0.671
		c-0.072-0.072-0.096-0.191-0.096-0.263c0-0.264,0.12-0.24,0.216-0.647c0.743-3.186,2.491-6.636,4.528-10.685
		c1.006-2.012,2.348-4.216,3.521-6.564c0.144-0.288,0.383-0.335,0.623-0.335c0.24,0,0.384,0.048,0.503,0.048
		c0.215,0,0.479,0.168,0.671,0.359c0.167,0.167,0.215,0.288,0.215,0.599c0,0.623-0.503,1.006-1.126,1.772
		c-0.215,0.264-0.264,0.383-0.455,0.647c-2.156,2.971-4.049,7.857-5.845,11.667c-0.192,0.407-0.216,0.456-0.216,0.479
		s0,0.048,0.048,0.048c0.024,0,0.048-0.024,0.168-0.192c1.94-2.707,3.689-4.767,5.438-6.66c0.335-0.359,0.455-0.479,0.671-0.551
		c0.215-0.072,0.431-0.12,0.551-0.12c0.24,0,0.695,0.096,0.886,0.168c0.168,0.072,0.359,0.287,0.359,0.455
		c0,0.695-0.287,1.174-0.718,1.917c-0.335,0.575-0.432,1.006-0.623,1.461c-0.647,1.533-1.246,3.498-1.246,5.126
		c0,1.15,0.239,1.39,0.599,1.581c0.144,0.072,0.407,0.096,0.599,0.144c0.096,0.024,0.167,0.12,0.167,0.192
		c0,0.096-0.072,0.191-0.12,0.312c-0.072,0.167-0.288,0.287-0.455,0.335C136.905,101.587,136.666,101.707,136.354,101.707z"/>
	<path style="fill:#C7A77B;" d="M149.614,90.926c0.12,0,0.479,0.024,0.671,0.312c0.048,0.072,0.048,0.096,0.048,0.144
		c0,0.096-0.048,0.192-0.096,0.264c-1.054,1.438-2.324,3.234-2.779,5.079c-0.168,0.671-0.335,1.39-0.335,2.132
		c0,0.623,0.144,1.246,0.503,1.796c0.024,0.048,0.048,0.096,0.048,0.144s-0.096,0.288-0.503,0.335
		c-0.144,0.024-0.312,0.096-0.455,0.096c-0.359,0-0.887-0.168-1.03-0.479c-0.312-0.695-0.407-1.39-0.407-2.061
		c0-0.719,0.096-1.126,0.096-1.198c0-0.096,0-0.12-0.096-0.12s-0.312,0.167-0.575,0.431L143.409,99
		c-1.246,1.174-2.012,1.509-2.851,1.797c-0.144,0.048-0.288,0.096-0.383,0.096c-0.264,0-0.551-0.167-1.677-1.078
		c-0.12-0.096-0.527-0.503-0.527-1.414c0-0.791,0.264-1.796,1.438-3.545c1.413-2.108,2.731-3.066,3.45-3.593
		c1.174-0.862,2.419-1.485,3.833-1.893c0.167-0.048,0.359-0.072,0.527-0.072c0.551,0,1.03,0.263,1.461,0.695
		c0.12,0.12,0.312,0.335,0.359,0.479C149.135,90.71,149.351,90.926,149.614,90.926z M146.763,91.022
		c-2.252,1.198-4.025,2.516-5.39,4.168c-1.006,1.222-1.797,2.635-1.797,3.33c0,0.288,0.096,0.646,0.527,0.646
		c0.192,0,0.743-0.263,1.174-0.67c2.228-2.084,4.744-3.689,5.965-5.965c0.167-0.312,0.431-0.646,0.695-0.91
		c0.072-0.072,0.12-0.216,0.12-0.359c0-0.168-0.144-0.479-0.551-0.479C147.434,90.783,147.075,90.854,146.763,91.022z"/>
	<path style="fill:#C7A77B;" d="M153.481,91.741c0,0.264-0.048,0.527-0.144,0.814c-0.072,0.288-0.096,0.335-0.096,0.383
		c0,0.072,0,0.096,0.072,0.096c0.024,0,0.12-0.024,0.312-0.191c1.317-1.006,2.467-1.677,3.33-1.964
		c0.072-0.024,0.216-0.048,0.288-0.048c0.671,0,1.342,0.191,1.749,0.67c0.096,0.096,0.167,0.264,0.167,0.408
		c0,0.743-0.646,1.054-0.838,1.054c-0.359,0-0.743-0.239-1.078-0.239c-0.072,0-0.167,0-0.383,0.096
		c-2.611,1.222-5.198,3.354-6.037,6.875c-0.167,0.719-0.431,1.03-0.599,1.15c-0.12,0.144-0.335,0.215-0.431,0.215
		c-0.383-0.024-0.551-0.311-0.719-0.503c-0.24-0.239-0.431-0.623-0.455-0.91c0-0.814,1.006-1.605,1.293-2.516
		c0.599-1.821,1.27-3.617,1.653-5.534c0.024-0.216,0.048-0.335,0.048-0.383c0-0.144-0.192-0.335-0.216-0.551
		c0-0.191,0.383-0.527,0.934-0.527c0.335,0,0.719,0.144,0.791,0.264C153.337,90.734,153.481,91.166,153.481,91.741z"/>
	<path style="fill:#C7A77B;" d="M160.795,101.204c-0.288,0-0.527-0.024-0.911-0.168c-0.527-0.191-1.365-0.575-1.533-0.67
		c-0.479-0.264-0.934-0.863-1.198-1.653c-0.167-0.479-0.288-1.389-0.288-1.845c0-0.215,0.024-0.455,0.12-0.791
		c0.67-2.443,2.3-4.551,4.12-6.492c0.407-0.432,1.39-1.078,2.563-1.078c0.647,0,0.982,0.096,1.461,0.263
		c0.264,0.096,0.767,0.527,0.767,1.485c0,0.623-0.264,1.15-0.551,1.725c-0.239,0.479-0.431,0.743-0.767,1.126
		c-1.653,1.869-3.521,3.953-5.558,5.079c-0.12,0.072-0.144,0.12-0.144,0.191c0,0.383,0.359,0.887,0.575,1.006
		c0.264,0.144,0.503,0.192,0.743,0.192c0.407,0,0.767-0.096,1.845-0.671c1.653-0.886,2.659-2.18,4.097-3.09
		c0.263-0.168,0.383-0.168,0.479-0.168c0.144,0,0.479,0.24,0.479,0.479c0,0.215-0.024,0.239-0.024,0.311c0,0.096,0,0.24-0.12,0.335
		c-1.15,0.982-1.653,2.18-5.294,4.192C161.226,101.204,161.106,101.204,160.795,101.204z M163.885,90.255
		c0-0.191,0-0.288-0.144-0.288c-0.144,0-0.288,0.072-0.503,0.216c-0.264,0.168-0.24,0.096-0.479,0.312
		c-1.557,1.39-3.234,3.354-3.761,5.486c0,0.096,0.024,0.12,0.048,0.12c0.048,0,0.096-0.024,0.167-0.072
		c1.414-1.078,2.587-2.396,3.666-3.689c0.359-0.431,0.264-0.503,0.575-0.982C163.693,90.998,163.885,90.687,163.885,90.255z"/>
	<path style="fill:#C7A77B;" d="M170.224,100.054c-0.144,0.407-0.288,0.599-0.503,0.767c-0.264,0.215-0.527,0.215-0.886,0.215
		c-0.264,0-0.791-0.215-1.198-0.838c-0.144-0.215-0.191-0.431-0.191-0.551c0-0.168,0.096-0.383,0.191-0.479
		c0.168-0.167,0.288-0.407,0.312-0.646c0.024-0.24,0.12-0.455,0.24-0.599c0.144-0.167,0.383-0.191,0.791-0.191
		c0.527,0,1.054,0.383,1.246,0.743c0.168,0.312,0.192,0.479,0.192,0.646C170.416,99.311,170.295,99.838,170.224,100.054z"/>
	<path style="fill:#C7A77B;" d="M176.451,85.296c0.144-0.335,0.335-0.503,0.647-0.503c0.215,0,0.479,0.024,0.838,0.479
		c0.144,0.192,0.407,0.359,0.407,0.575c0,0.191,0,0.287-0.072,0.383c-0.503,0.767-1.006,1.677-1.198,2.036l-1.246,2.348
		c-0.144,0.264-0.646,0.479-0.862,0.479c-0.167,0-0.312-0.048-0.479-0.096c-0.168-0.048-0.312-0.072-0.455-0.072
		c-0.168,0-0.383-0.383-0.383-0.527c0-0.144,0.096-0.12,0.312-0.479c0.527-0.886,1.054-1.772,1.533-2.635
		C175.756,86.806,176.211,85.872,176.451,85.296z M179.876,85.848c0.12-0.312,0.288-0.359,0.551-0.359c0.12,0,0.719,0,1.006,0.288
		c0.192,0.191,0.264,0.527,0.264,0.814c0,0.695-0.743,1.413-1.246,2.252l-1.461,2.467c-0.144,0.24-0.456,0.431-0.815,0.431
		c-0.335,0-0.623-0.144-0.767-0.167c-0.215-0.024-0.359-0.335-0.359-0.479c0-0.144,0.024-0.239,0.144-0.455l1.485-2.587
		C178.99,87.5,179.805,86.039,179.876,85.848z"/>
</g>
</svg>
